<?xml version="1.0" encoding="UTF-8"?>
<svg width="104px" height="135px" viewBox="0 0 104 135" version="1.1" xmlns="http://www.w3.org/2000/svg" xmlns:xlink="http://www.w3.org/1999/xlink">
    <!-- Generator: Sketch 57.1 (83088) - https://sketch.com -->
    <title>Fill 19</title>
    <desc>Created with Sketch.</desc>
    <g id="Page-1" stroke="none" stroke-width="1" fill="none" fill-rule="evenodd">
        <g id="Desktop-Copy-3" transform="translate(-931.000000, -351.000000)" fill="#FFFFFF">
            <path d="M960.79422,426.380704 C963.86022,426.447704 966.84322,425.823704 969.78822,425.105704 C974.78922,423.885704 979.38222,421.616704 983.90522,419.229704 C985.46922,418.402704 986.78422,417.232704 987.66822,415.634704 C989.48822,412.343704 988.15522,408.577704 984.66322,407.409704 C982.68422,406.747704 980.63322,406.361704 978.52722,406.674704 C976.78922,406.932704 975.04122,407.161704 973.32722,407.543704 C965.28522,409.333704 960.18222,414.390704 957.47822,422.024704 C957.16322,422.910704 957.08822,423.890704 956.96322,424.834704 C956.85822,425.623704 957.54322,426.340704 958.40222,426.373704 C959.19822,426.403704 959.99622,426.380704 960.79422,426.380704 M1026.57622,434.144704 C1022.70722,434.279704 1017.61622,433.673704 1012.51222,433.348704 C1012.03722,433.317704 1011.56422,433.224704 1011.09522,433.136704 C1010.33322,432.992704 1009.69022,432.156704 1009.74422,431.405704 C1009.91222,429.064704 1011.46722,427.303704 1013.59922,427.294704 C1015.83422,427.285704 1018.07322,427.431704 1020.30522,427.595704 C1028.92822,428.229704 1037.54922,428.387704 1046.17322,427.609704 C1049.14322,427.341704 1049.92822,428.222704 1049.44522,431.179704 C1048.79622,435.156704 1047.57422,438.971704 1045.68522,442.507704 C1042.74822,448.003704 1039.62822,453.401704 1036.53922,458.816704 C1036.15622,459.485704 1035.53922,460.057704 1034.93322,460.555704 C1034.42922,460.969704 1033.76722,461.042704 1033.14522,460.684704 C1032.54322,460.337704 1032.17422,459.760704 1032.23522,459.120704 C1032.31122,458.345704 1032.49222,457.524704 1032.85422,456.842704 C1033.90222,454.866704 1035.10422,452.972704 1036.17522,451.008704 C1038.39622,446.942704 1040.57722,442.854704 1042.74622,438.758704 C1042.85322,438.557704 1042.68122,438.206704 1042.63922,437.926704 C1042.36022,438.018704 1042.01122,438.033704 1041.81422,438.214704 C1037.29722,442.352704 1032.17222,445.573704 1026.74022,448.358704 C1019.84022,451.895704 1012.51222,454.026704 1004.87022,455.167704 C1001.23522,455.710704 997.61022,456.340704 993.96222,456.766704 C987.42022,457.529704 980.87522,457.551704 974.39422,456.197704 C970.45922,455.377704 966.72922,453.977704 963.25822,451.915704 C957.13922,448.281704 953.33722,443.010704 951.95322,436.016704 C951.82922,435.389704 951.79322,434.738704 951.60922,434.131704 C951.36622,433.320704 950.80722,432.721704 949.94822,432.590704 C947.89722,432.277704 945.82822,432.072704 943.77922,431.744704 C933.10622,430.040704 924.82822,424.399704 918.31122,416.005704 C912.82322,408.938704 909.28322,400.964704 907.70422,392.143704 C907.42422,390.572704 907.13522,388.993704 907.01422,387.406704 C906.88322,385.688704 907.66422,384.328704 909.07222,383.325704 C910.05022,382.631704 911.52322,383.098704 911.74822,384.234704 C912.15022,386.271704 912.42522,388.335704 912.88422,390.358704 C914.93922,399.423704 918.89322,407.519704 925.29122,414.343704 C927.59822,416.804704 930.16822,418.953704 932.99022,420.802704 C938.21122,424.223704 944.04322,425.701704 950.17822,426.205704 C951.10722,426.281704 951.66022,425.854704 951.94122,424.949704 C952.27322,423.881704 952.54722,422.795704 952.88822,421.730704 C956.60622,410.105704 964.64822,403.451704 976.50122,401.128704 C979.37322,400.566704 982.22122,400.371704 985.04522,401.205704 C986.41122,401.609704 987.80122,402.086704 989.02122,402.801704 C992.41222,404.787704 993.99322,408.359704 993.26522,412.216704 C992.56322,415.938704 990.77822,419.107704 988.08922,421.765704 C986.14022,423.692704 983.90622,425.237704 981.48122,426.491704 C975.31522,429.680704 968.81222,431.765704 961.87122,432.410704 C960.60722,432.527704 959.35122,432.767704 958.09922,432.992704 C957.50522,433.100704 957.13422,433.904704 957.33622,434.511704 C957.43822,434.814704 957.52722,435.120704 957.63722,435.420704 C959.67422,440.972704 963.52622,444.834704 968.78922,447.376704 C973.77222,449.781704 979.11722,450.652704 984.56522,451.052704 C989.70222,451.428704 994.78622,450.812704 999.85522,450.099704 C1003.49222,449.587704 1007.10822,448.924704 1010.74122,448.368704 C1013.60722,447.930704 1016.39722,447.178704 1018.97922,445.901704 C1023.99022,443.420704 1028.95522,440.842704 1033.87122,438.178704 C1035.39322,437.353704 1036.69422,436.123704 1038.08422,435.061704 C1038.16422,434.999704 1038.15722,434.765704 1038.12422,434.627704 C1038.09422,434.506704 1037.98222,434.322704 1037.88822,434.311704 C1037.25822,434.234704 1036.62322,434.154704 1035.98922,434.151704 C1033.27222,434.135704 1030.55322,434.144704 1026.57622,434.144704" id="Fill-19" transform="translate(978.288724, 421.957317) rotate(33.000000) translate(-978.288724, -421.957317) "></path>
        </g>
    </g>
</svg>