<?xml version="1.0" encoding="UTF-8"?>
<svg width="120px" height="22px" viewBox="0 0 120 22" version="1.1" xmlns="http://www.w3.org/2000/svg" xmlns:xlink="http://www.w3.org/1999/xlink">
    <!-- Generator: Sketch 58 (84663) - https://sketch.com -->
    <title>Kayak Copy</title>
    <desc>Created with Sketch.</desc>
    <g id="Page-2" stroke="none" stroke-width="1" fill="none" fill-rule="evenodd">
        <g id="expedia_p1_concept_active" transform="translate(-210.000000, -109.000000)">
            <g id="p2" transform="translate(192.000000, 75.000000)">
                <g id="Booking.com" transform="translate(18.000000, 34.000000)">
                    <g id="booking.com">
                        <path d="M88.3391571,5.67865751 C88.9383879,5.95034489 89.4662999,6.33455286 89.7836626,6.98047803 C89.9327835,7.28409372 90.0043219,7.60788715 89.9988274,7.95221441 C89.9955307,8.15541615 89.998278,8.35885528 89.998278,8.56205702 L89.9969593,8.56205702 C89.9969593,8.8434772 89.9934428,9.12501606 89.9988274,9.40631754 C90.0005857,9.50435763 89.9809153,9.5434075 89.8805857,9.54233927 C89.3788274,9.53711679 88.8766296,9.55408984 88.375201,9.53592987 C87.8355307,9.51634559 87.4248714,9.21830845 87.2683879,8.59659657 C87.2071791,8.35303934 87.00619,8.24585992 86.8069593,8.17060881 C85.7570692,7.77393811 84.4771791,8.13915526 83.7631131,9.06602584 C83.4559703,9.464833 83.2578384,9.92310515 83.1464098,10.4312282 C83.0243219,10.9877778 83.0057505,11.5457518 83.1077285,12.1021827 C83.2906955,13.1000315 83.7923439,13.8494566 84.651245,14.2956221 C85.2947615,14.6299792 85.9801461,14.7187613 86.6760802,14.5990004 C87.371245,14.4793583 87.9921241,14.1480872 88.5565197,13.6918328 C88.7988274,13.49599 89.0317944,13.2907705 89.2303659,13.0437712 C89.2825637,12.9788463 89.3086076,12.9668584 89.3547615,13.0499432 C89.7548714,13.7704073 90.1578384,14.4890911 90.5604758,15.2078935 C90.6078384,15.2924026 90.5858604,15.3526985 90.5267395,15.4253384 C90.1516846,15.8859844 89.7055307,16.2516763 89.2259703,16.5726211 C88.698278,16.9260877 88.1289373,17.1828198 87.529267,17.3469717 C86.6997065,17.5740306 85.8583879,17.6098758 85.0071791,17.4942692 C84.1038824,17.3716597 83.2643219,17.0629403 82.5037725,16.5273992 C81.5049813,15.8240268 80.7903659,14.8687887 80.3726736,13.654682 C80.099267,12.859679 79.9789373,12.0402252 80.0030032,11.1978638 C80.0495966,9.55765062 80.5679483,8.12538692 81.6635527,6.96540407 C82.2977285,6.2938413 83.0470692,5.82536158 83.8947615,5.53159737 C84.5137725,5.31700114 85.1456406,5.20887217 85.7925637,5.18786358 C86.6730032,5.15937736 87.5273988,5.31047305 88.3391571,5.67865751 Z M96.8353594,5.22629125 C97.6522824,5.32243226 98.4204143,5.56658296 99.1340407,6.00064182 C100.040854,6.55220637 100.740085,7.32762517 101.231293,8.32120099 C101.455469,8.77460675 101.627887,9.25092018 101.732173,9.74954783 C101.876788,10.4412883 101.940744,11.1418121 101.880744,11.8552734 C101.839865,12.3381149 101.768766,12.809918 101.641074,13.2747183 C101.44437,13.9901973 101.133711,14.6396833 100.708107,15.2256687 C100.10492,16.0558047 99.3406341,16.6587632 98.4355791,17.0421403 C97.5034912,17.4370306 96.5303044,17.5699663 95.533711,17.4705019 C94.5304143,17.3703254 93.5972275,17.0384608 92.7615132,16.4228023 C91.9895352,15.8539086 91.3961286,15.1110116 90.985689,14.2027758 C90.708766,13.5899658 90.5332715,12.945465 90.4505242,12.2665433 C90.4131616,11.9596042 90.4070077,11.6551576 90.400744,11.3479812 C90.3834912,10.1106107 90.6660187,8.95988591 91.2781066,7.91242365 C91.8219528,6.98211099 92.5670077,6.28942094 93.4828319,5.8099028 C94.0211835,5.52800786 94.5896451,5.34569602 95.1793154,5.25632048 C95.7281066,5.17323566 96.2789857,5.16089163 96.8353594,5.22629125 Z M116.850774,5.24191919 C118.081104,5.43574422 118.969675,6.11419116 119.419236,7.40402372 C119.597038,7.91404586 119.680445,8.44139711 119.734401,8.97800639 C119.736818,9.00340661 119.734291,9.03046852 119.757478,9.04779764 L119.757478,17.3039367 L118.705609,17.3055632 C118.530347,17.3046357 118.355133,17.3021563 118.180005,17.2966965 C117.75495,17.2834029 117.350225,17.1809712 117.057478,16.8062586 C116.84484,16.5342152 116.750005,16.2067423 116.748686,15.8583795 C116.741214,14.0660024 116.742203,12.2733879 116.740884,10.4810109 C116.740445,10.0382875 116.723192,9.59675095 116.630774,9.16399771 C116.521104,8.65017741 116.236379,8.26407036 115.63528,8.22846258 C114.728357,8.17469482 114.097258,8.64721009 113.621873,9.42678314 C113.338686,9.89087123 113.198686,10.4147804 113.089456,10.9516271 C113.006159,11.3605231 112.981653,11.7735734 112.981873,12.1904218 C112.982642,13.8370444 112.980225,15.4836669 112.985829,17.1302894 C112.986269,17.2785365 112.94506,17.3067853 112.817917,17.3059545 C111.920554,17.3002572 111.023302,17.300732 110.125939,17.3055984 C110.007258,17.3063106 109.961543,17.2875571 109.961983,17.1397848 C109.967478,14.8732308 109.969565,12.6064394 109.963851,10.3397667 C109.962752,9.88386837 109.929126,9.42856353 109.757258,8.99937106 C109.511104,8.38478074 109.037258,8.1799173 108.46484,8.21789893 C107.831763,8.25979742 107.377038,8.6294062 107.017148,9.15841915 C106.690554,9.63876814 106.493192,10.181312 106.367917,10.7606507 C106.251104,11.3010581 106.210225,11.8465693 106.211214,12.3993208 C106.213961,13.9781699 106.210554,15.5570189 106.215719,17.135868 C106.216269,17.2756879 106.182203,17.3070227 106.056269,17.3063106 C105.159016,17.3001386 104.261543,17.300732 103.364291,17.3058358 C103.243961,17.306548 103.241653,17.1607934 103.241653,17.1607934 L103.239085,17.0912989 L103.239895,17.0218044 C103.239675,13.2358663 103.239675,9.44980951 103.240445,5.66387141 C103.240445,5.60250733 103.226269,5.53888809 103.253741,5.47954179 C103.268247,5.4606301 103.286415,5.45680556 103.305316,5.45653301 L103.333851,5.45734627 C103.859126,5.46660429 104.385939,5.4248245 104.909016,5.48678204 C105.429346,5.5483835 105.961873,5.85781513 106.098027,6.54148455 C106.113961,6.62183944 106.140554,6.70053264 106.157917,6.78159969 C106.17528,6.86302282 106.19462,6.91963919 106.281653,6.81732617 C106.5755,6.47228676 106.882093,6.14042223 107.251214,5.8855892 C107.752862,5.53912548 108.290554,5.31004874 108.887038,5.22435268 C109.299236,5.16512507 109.706928,5.17651956 110.109346,5.24678559 C111.133082,5.42541796 111.910994,5.99597332 112.396159,7.0030801 C112.512752,7.24497563 112.523302,7.25043549 112.673302,7.03690749 C113.096708,6.43383035 113.623412,5.97045441 114.25506,5.64583013 C114.677148,5.42886004 115.119565,5.29580563 115.58473,5.22577699 C116.010445,5.16180168 116.432972,5.17604479 116.850774,5.24191919 Z M77.8242933,12.9612806 C78.8293483,12.9535656 79.6734142,13.879724 79.670557,14.9461771 C79.6676999,16.0039656 78.8434142,16.9530317 77.8338537,16.9176613 C76.8640735,16.9557616 75.9970406,16.0592763 76.0000076,14.9398863 C76.0029746,13.8266684 76.8545131,12.9686395 77.8242933,12.9612806 Z M96.4229418,8.1042309 C95.6505242,8.01616099 94.9555791,8.23016376 94.383711,8.81543701 C93.7464583,9.46753419 93.5134912,10.3095395 93.4808539,11.2243035 C93.4586561,11.8466088 93.5640407,12.4519411 93.8165682,13.0197665 C94.0850297,13.6239119 94.4919528,14.0882374 95.0584363,14.3595687 C95.6192055,14.6282888 96.2088758,14.6638965 96.8081066,14.5105457 C97.4003044,14.3587378 97.872722,14.0144106 98.2268978,13.4839733 C98.6489857,12.8514604 98.8047,12.1314711 98.8061286,11.2489915 C98.826678,10.8995605 98.7599747,10.4450865 98.6109638,10.0168436 C98.2306341,8.92380336 97.5300846,8.23040114 96.4229418,8.1042309 Z" id="Combined-Shape" fill="#0093CF"></path>
                        <path d="M71.2541079,5.80135123 C71.5034485,5.95173476 71.7264156,6.14116817 71.9441079,6.35267839 C72.1844375,5.79078759 72.5804815,5.48907098 73.1548771,5.47969426 C73.2935584,5.45168281 73.4335584,5.46913062 73.5728991,5.4679437 C73.9200419,5.46497638 74.2672947,5.47209794 74.6143276,5.46402684 C74.7257562,5.4614156 74.7641079,5.49915985 74.747954,5.61381691 L74.7460172,5.66037409 L74.7472947,5.70746538 L74.7474046,16.5826755 C74.7474046,16.6452265 74.7453167,16.7076588 74.7493826,16.7702098 C74.6825694,18.1114363 74.2716903,19.2970568 73.373998,20.2526509 C72.6485035,21.0251024 71.7598221,21.4773213 70.7815804,21.7401067 C70.4123496,21.8393337 70.0378441,21.907582 69.6577342,21.9364243 C69.6392727,21.9377695 69.6192483,21.9348945 69.6022194,21.9423237 L69.5794925,21.9630114 L68.3923496,21.9630114 C68.1321298,21.9225372 67.8709211,21.887879 67.6119101,21.8401646 C66.7094925,21.6742323 65.8486134,21.3750082 65.0404815,20.9045107 C64.9496024,20.8514552 64.9297123,20.8087258 64.9694925,20.7040389 C65.1603716,20.1999514 65.3436683,19.6925405 65.5303716,19.1866726 C65.549932,19.133617 65.5737782,19.0823418 65.5972947,19.0310666 C65.8432287,18.4944574 66.2043276,18.3095343 66.7391628,18.477603 C67.1775145,18.6152864 67.6094925,18.7774205 68.063009,18.8497043 C68.8786134,18.9797914 69.6880639,18.9985449 70.4594925,18.6184911 C71.1686134,18.2689414 71.5257562,17.6459239 71.6080639,16.824215 C71.6290529,16.6136543 71.6391628,16.4022628 71.6235584,16.1937199 C71.5882837,16.174729 71.5716903,16.200604 71.5550969,16.2154406 C70.8985035,16.8048681 70.1281738,17.0576833 69.2894925,17.1007688 C68.013998,17.165931 66.8557562,16.8207729 65.8664156,15.9216764 C65.0722397,15.199788 64.5591628,14.2754099 64.2832287,13.2043278 C63.8768551,11.6273779 63.8912507,10.049597 64.4341079,8.51418946 C65.0953167,6.64323789 66.3531189,5.52123668 68.2037782,5.24539506 C69.265976,5.08717781 70.2986134,5.22521731 71.2541079,5.80135123 Z M31.6613401,5.8653075 C33.2326588,6.69663053 34.1922192,8.07666947 34.56145,9.92245821 C34.856395,11.3969765 34.7350763,12.8361243 34.1150763,14.1942051 C33.350461,15.8695513 32.0866148,16.8859161 30.4151862,17.3240105 C29.9311203,17.4507742 29.4384829,17.5050167 28.9398016,17.5020494 C27.6279335,17.4923166 26.4191423,17.1276929 25.3632082,16.2626612 C24.2599115,15.358817 23.5956258,14.152544 23.3289225,12.694168 C23.0980434,11.4317534 23.1694719,10.1855997 23.606395,8.98098845 C24.23145,7.25757179 25.3696917,6.0981824 26.9966148,5.53534205 C28.5829884,4.98662613 30.1591423,5.07042311 31.6613401,5.8653075 Z M15.4442191,5.38934702 C16.8994938,5.014041 18.3298235,5.14258509 19.679274,5.87313809 C21.2685048,6.73330342 22.2221312,8.13791173 22.5715817,10.0111185 C22.8326806,11.4102669 22.7185048,12.7805731 22.1547685,14.081444 C21.4425707,15.7250993 20.2457576,16.7619979 18.6389444,17.2561152 C18.0847685,17.4266765 17.5165268,17.5013341 16.9389444,17.4971799 C15.4515817,17.4829368 14.1111422,17.0256142 12.9942191,15.9315057 C12.0222411,14.9793536 11.4678455,13.7811518 11.2769663,12.3846145 C11.1036696,11.1169775 11.2135597,9.88091267 11.7032301,8.70692409 C12.4408125,6.93876032 13.7096037,5.83681815 15.4442191,5.38934702 Z M49.0153058,5.21153729 C49.7773938,5.28313289 50.2422289,5.80177621 50.3187124,6.64514801 C50.3327784,6.79913921 50.339152,6.95264501 50.339152,7.10724295 C50.3387124,10.4573099 50.3380531,13.8073769 50.3418992,17.1575652 C50.342119,17.2969946 50.3146465,17.3346126 50.1843168,17.3336418 C49.2437674,17.3264822 48.3032179,17.3262395 47.3627784,17.3338845 C47.2293718,17.3349766 47.2077234,17.2909271 47.2080531,17.1562304 C47.2120091,15.190992 47.2106905,13.2256324 47.2106905,11.2602727 L47.2012399,11.260394 L47.2016795,5.3330071 C47.2016795,5.26311039 47.1797014,5.1832631 47.2947564,5.18678221 C47.868163,5.20377099 48.4426685,5.15777993 49.0153058,5.21153729 Z M60.1748073,5.48199657 C61.1845876,5.89196084 61.8116205,6.68743869 62.1342579,7.78190322 C62.3126095,8.38687944 62.3819502,9.0104904 62.3839282,9.64276592 C62.3872249,10.7475567 62.3833788,11.8524662 62.3853568,12.9573757 C62.3878843,14.3483343 62.3934887,15.7395304 62.3968952,17.1307264 C62.3974447,17.3558863 62.4185436,17.3281123 62.2085436,17.3252636 C61.6732689,17.3184981 61.1376645,17.3465096 60.6028293,17.3048485 C59.7695326,17.2399236 59.2788733,16.7033144 59.243159,15.7995889 C59.2086535,14.9248243 59.2324996,14.049229 59.2295326,13.1739897 C59.2262359,12.1890784 59.2328293,11.2040485 59.2276645,10.2191372 C59.226126,9.92311786 59.2020601,9.62792935 59.133159,9.338082 C58.979093,8.6909699 58.5983238,8.37655319 57.9794227,8.35471375 C56.7499722,8.31139095 55.6474447,9.07612742 55.281181,10.649754 C55.1924996,11.0305199 55.149093,11.4172204 55.1483238,11.8080752 C55.1450271,13.5852596 55.1449172,15.3623253 55.1493128,17.139391 C55.1497524,17.2852642 55.1230491,17.3315543 54.978104,17.3302487 C54.0372249,17.3221776 53.0963458,17.3234832 52.1554667,17.3291805 C52.0327194,17.3298926 52.0070051,17.2909615 52.0070051,17.1641978 C52.0089832,13.7091747 52.007115,10.2539142 52.0053568,6.79877236 C52.005137,6.38726509 52.0024996,5.97552043 52.0006315,5.56389447 C52.0004117,5.50122477 51.988104,5.44175978 52.083159,5.44472709 C52.64217,5.46205621 53.2028293,5.40995016 53.7604117,5.47321332 C54.3723898,5.54276719 54.9060161,5.87854857 55.0495326,6.68328445 C55.0554667,6.71699315 55.0701919,6.74915885 55.0844777,6.79343119 C55.2672249,6.60898288 55.4275546,6.41527654 55.6133788,6.24946297 C56.3692029,5.57564504 57.2409612,5.23855803 58.2137084,5.19203053 C58.8832689,5.15998353 59.5424996,5.22526446 60.1748073,5.48199657 Z M37.9063794,0.889676189 C38.5653904,0.941544858 38.9593464,1.26154013 39.106819,1.87791084 C39.1564893,2.08514813 39.1684673,2.29938829 39.1686871,2.5126789 L39.1694288,5.85832677 L39.1693464,9.20397464 C39.1693464,9.41572225 39.1694563,9.4182148 39.3726431,9.41512879 C39.5363794,9.41275494 39.7005552,9.40943155 39.8638519,9.39613797 C40.1273684,9.37453592 40.3311047,9.2576237 40.4813244,9.00302806 C41.1640717,7.84589383 41.8586871,6.6968307 42.5458299,5.54266378 C42.5928629,5.46361451 42.6395662,5.42919365 42.7285772,5.42954973 C43.847808,5.43287312 44.9672585,5.4316862 46.0865992,5.43192358 C46.1092365,5.43192358 46.1319838,5.43417874 46.1780277,5.43655259 C46.0892365,5.58135757 46.0114343,5.71013905 45.9320937,5.83761491 C45.0348409,7.27878055 44.137808,8.72006488 43.2395662,10.1603997 C43.0967091,10.3894764 42.9376981,10.6053783 42.7564893,10.8012211 C42.7205552,10.8401522 42.6830827,10.8699441 42.7362695,10.9260857 C43.1489069,11.3618062 43.368797,11.9303438 43.6205552,12.47087 C44.3180277,13.9677024 45.1430827,15.3837052 45.9431926,16.8157316 C46.0296761,16.9707441 46.1157201,17.1261127 46.2191266,17.3119853 C45.2256102,17.287416 44.2612146,17.344151 43.2980277,17.2811253 C42.7592365,17.2458736 42.3506651,16.9587561 42.0676981,16.4681996 C41.7572585,15.9299286 41.5072585,15.3558125 41.229786,14.7980759 C40.8861596,14.107641 40.5450607,13.4156631 40.2123135,12.7191749 C40.1174783,12.5206022 39.9759398,12.4287341 39.7820937,12.4027404 C39.6431926,12.383987 39.5042915,12.3709308 39.3639618,12.3749663 C39.1669411,12.3806636 39.1669302,12.3467849 39.1692058,12.5079932 L39.1693464,16.7835659 C39.1693464,16.9137716 39.1648409,17.0443335 39.1708849,17.1743019 C39.1753904,17.2713925 39.1535222,17.310205 39.0524233,17.3097302 C38.0730827,17.3055759 37.0936321,17.3058133 36.1141816,17.3094928 C36.0234124,17.3098489 35.9965992,17.281244 36.0003354,17.1867646 C36.0062695,17.0359063 36.0024233,16.8844546 36.0024233,16.7334776 L36.0023426,0.9489489 C36.004301,0.847338096 36.0263428,0.865093631 36.1850607,0.867124593 C36.758797,0.874364842 37.3329728,0.844572998 37.9063794,0.889676189 Z M4.0686162,0.864611541 L5.31318681,0.872454045 C6.25802198,0.882542917 7.17241758,1.06509215 8.00758242,1.5716722 C9.19769231,2.29367933 9.83208791,3.39574019 9.9067033,4.86990237 C9.95868132,5.89706819 9.73582418,6.83841926 9.15428571,7.66772451 C8.96065934,7.94368482 8.72824176,8.17667841 8.48307692,8.3968532 C8.41648352,8.45655558 8.35208791,8.51898789 8.27406593,8.59210254 C8.38835165,8.66319941 8.49197802,8.73204112 8.59912088,8.79376128 C9.59054945,9.3650288 10.1762637,10.2670926 10.4059341,11.4374017 C10.6342857,12.6011827 10.5142857,13.7268634 9.97274725,14.7751565 C9.4267033,15.8319955 8.5678022,16.4781581 7.52692308,16.863909 C6.81923077,17.1262197 6.08692308,17.2374347 5.34021978,17.2380281 C3.61318681,17.2399272 1.88604396,17.2386216 0.159010989,17.2387403 L0.0795054945,17.2403278 L0,17.2428945 L0,2.32560764 C0.0751648352,2.04110146 0.16010989,1.76276729 0.338131868,1.52751855 C0.65978022,1.10259901 1.07395604,0.874590512 1.57923077,0.871504504 L2.8239479,0.865420409 L4.0686162,0.864611541 Z M26.7745269,9.381576 C26.2715599,10.2638181 26.1869445,11.2306881 26.3727686,12.2258069 C26.6325489,13.6168843 27.5709005,14.5570484 28.8010104,14.6117657 C29.673428,14.6505782 30.4133181,14.3504046 30.9672741,13.6044216 C31.4495818,12.9548169 31.6145269,12.1890122 31.6189225,11.3727632 C31.6260653,10.9949646 31.5888126,10.6226259 31.4890324,10.2612069 C31.1619994,9.0764173 30.4774939,8.29565733 29.3117796,8.12106051 C28.2645269,7.96414888 27.3303511,8.40627884 26.7745269,9.381576 Z M17.3075158,8.11607229 C16.3825707,7.98491696 15.580263,8.274883 14.9722411,9.06822439 C14.467296,9.72696836 14.2896037,10.5079657 14.2865268,11.3460542 C14.2816916,11.5555467 14.2922411,11.76314 14.3241092,11.9691904 C14.3414718,12.081711 14.358285,12.1949437 14.3820213,12.30604 C14.6898235,13.7447131 15.7452081,14.7360338 17.1890543,14.5991812 C18.084329,14.5144347 18.7748784,14.0596046 19.2004828,13.2063235 C19.7171861,12.1703744 19.7589444,11.0731799 19.3945488,9.97610414 C19.0448784,8.92341941 18.3510323,8.26420067 17.3075158,8.11607229 Z M3.89373626,10.0256718 C3.27846154,10.0256718 2.94318681,10.3676253 2.92813187,11.0366955 C2.92007326,11.3943559 2.92168498,11.7522273 2.92365486,12.1101338 L2.92571429,12.6469981 C2.92186813,13.2097197 2.92351648,13.7726788 2.92010989,14.3354004 C2.91956044,14.4264377 2.93538462,14.4603837 3.02934066,14.4600277 C3.89285714,14.455636 4.7567033,14.4710661 5.61989011,14.45255 C6.19604396,14.4399686 6.70703297,14.2264406 7.07538462,13.7192671 C7.59483516,13.0040254 7.65318681,11.7591774 7.20494505,10.9771118 C6.8210989,10.3072107 6.22824176,10.0465617 5.52945055,10.0285205 C4.98450549,10.0145147 4.43901099,10.0256718 3.89373626,10.0256718 Z M69.464303,8.18566252 L69.2713606,8.18849695 C68.4107013,8.22006918 67.7950969,8.66053745 67.4772947,9.52877387 C67.1235584,10.4951691 67.134987,11.4811486 67.4348771,12.4611934 C67.7774046,13.5804647 68.5352068,14.1533939 69.623998,14.1378452 C70.4950969,14.1253825 71.1566353,13.6199894 71.4561958,12.7420201 C71.6336683,12.2216717 71.6821298,11.6806708 71.6880639,11.1664945 C71.6850969,10.7301804 71.6597123,10.3307798 71.5708112,9.93956899 C71.4254265,9.29922237 71.147954,8.75667846 70.5793826,8.44475429 C70.2855835,8.28367146 69.9743478,8.21354593 69.6560478,8.19263631 L69.464303,8.18566252 Z M3.82571429,3.57508472 C3.22615385,3.60855603 2.94615385,3.94766081 2.9278022,4.59916453 C2.92362637,4.74832158 2.92196581,4.89754456 2.92160765,5.04679831 L2.92538462,5.94240877 C2.92186813,6.41112588 2.92483516,6.87972429 2.91945055,7.3484414 C2.91813187,7.45526474 2.94142857,7.48897344 3.04472527,7.48826129 C3.78241758,7.48339489 4.52010989,7.4928903 5.25758242,7.48303881 C5.76549451,7.47627333 6.21824176,7.30298213 6.54087912,6.85610446 C6.94351648,6.29824921 7.02549451,5.65517266 6.90373626,4.97898088 C6.76494505,4.20890324 6.29318681,3.72024577 5.57175824,3.60440179 C4.99274725,3.51146548 4.40659341,3.54256294 3.82571429,3.57508472 Z M49.3038549,0 C49.5213275,0.0754884983 49.7438549,0.132223565 49.9453934,0.258749884 C50.5984703,0.669070228 50.9598989,1.49647639 50.8320967,2.30524782 C50.7056132,3.10559207 50.1302286,3.75139855 49.4005582,3.91198965 C48.3835253,4.13608129 47.4247341,3.44695201 47.2314374,2.31830401 C47.0460527,1.23653958 47.7002286,0.242726382 48.6755033,0.0296731518 C48.7028659,0.0237385215 48.7342945,0.0302666149 48.753745,0 L49.3038549,0 Z" id="Combined-Shape" fill="#00327B"></path>
                    </g>
                </g>
            </g>
        </g>
    </g>
</svg>