<?xml version="1.0" encoding="UTF-8"?>
<svg width="268px" height="80px" viewBox="0 0 268 80" version="1.1" xmlns="http://www.w3.org/2000/svg" xmlns:xlink="http://www.w3.org/1999/xlink">
    <!-- Generator: Sketch 58 (84663) - https://sketch.com -->
    <title>Cometo</title>
    <desc>Created with Sketch.</desc>
    <defs>
        <path d="M9.7625,53.93 C9.81916695,48.6599736 11.6749817,43.2341946 15.33,37.6525 C18.9850183,32.0708054 23.5324728,27.1691878 28.9725,22.9475 C34.4125272,18.7258122 40.4474669,15.2691801 47.0775,12.5775 C53.7075332,9.88581987 59.9408042,8.54 65.7775,8.54 C69.1208501,8.54 72.223319,9.23415972 75.085,10.6225 C77.946681,12.0108403 79.3775,14.107486 79.3775,16.9125 C79.3775,19.717514 77.7766827,22.7491504 74.575,26.0075 C71.3733173,29.2658496 67.5483556,32.0424885 63.1,34.3375 C58.6516444,36.6325115 54.75585,37.78 51.4125,37.78 C49.8824924,37.78 48.2958416,37.3550042 46.6525,36.505 C45.0091585,35.6549958 44.1875,34.4650076 44.1875,32.935 C44.1875,32.0849957 44.8674932,31.3483364 46.2275,30.725 C51.0441907,28.7983237 54.6708211,26.9283424 57.1075,25.115 C57.6175026,24.5483305 57.9999987,24.265 58.255,24.265 C58.5100013,24.265 58.6375,24.4916644 58.6375,24.945 C58.6375,25.7383373 57.6741763,26.6733279 55.7475,27.75 L54.9789655,28.3339355 C54.1313185,28.9885071 53.7075,29.3605259 53.7075,29.45 C53.7075,29.5633339 53.735833,29.62 53.7925,29.62 C54.8776118,29.62 58.0924966,27.6200766 63.4372454,23.6201723 L64.1625,23.075 C69.9425289,18.7116448 72.8325,15.9066729 72.8325,14.66 C72.8325,13.8666627 72.0675077,13.47 70.5375,13.47 C65.0974728,13.47 59.5725281,14.7591538 53.9625,17.3375 C48.3524719,19.9158462 43.3800217,23.1458139 39.045,27.0275 C34.7099783,30.9091861 30.7858509,35.0174783 27.2725,39.3525 C23.7591491,43.6875217 21.0675094,47.7108148 19.1975,51.4225 C17.3274907,55.1341852 16.3925,58.0099898 16.3925,60.05 C16.3925,61.2966729 16.9874941,61.92 18.1775,61.92 C19.1125047,61.92 20.9045713,61.5390779 23.5537469,60.7772232 L24.2975,60.56 C27.3575153,59.6533288 31.7916376,57.8400136 37.6,55.12 C43.4083624,52.3999864 49.0041398,49.1416856 54.3875,45.345 C54.7841687,45.0049983 55.0533326,44.835 55.195,44.835 C55.3366674,44.835 55.4075,44.9483322 55.4075,45.175 C55.4075,45.4016678 54.9116716,46.3649915 53.92,48.065 C52.9283284,49.7650085 51.4266767,51.8333211 49.415,54.27 C47.4033233,56.7066789 45.1225127,59.0724885 42.5725,61.3675 C40.0224873,63.6625115 36.9483513,65.6316585 33.35,67.275 C29.7516487,68.9183416 26.4366818,69.74 23.405,69.74 C20.3733182,69.74 17.993342,69.2016721 16.265,68.125 C14.536658,67.0483279 13.2758373,65.7166746 12.4825,64.13 C10.8391585,60.9566508 9.9608339,58.0950128 9.8475,55.545 L9.7625,53.93 Z M57.9575,62.26 C59.7010985,62.26 61.8376042,61.1597891 64.367077,58.9593356 L64.6725,58.69 C67.3358467,56.3099881 68.7241661,54.6666712 68.8375,53.76 C68.2060683,53.2338069 67.5380003,52.3045257 66.8332787,50.9721314 L66.0771234,49.5087217 C65.6903732,48.7729047 65.4771669,48.405 65.4375,48.405 C63.6808246,50.0483416 62.1225068,51.9466559 60.7625,54.1 L60.3323435,54.8341768 C58.4657725,58.0651991 57.5325,60.3137868 57.5325,61.58 C57.5325,62.0333356 57.6741652,62.26 57.9575,62.26 Z M76.3175,41.435 C75.7744417,41.435 74.6719365,42.2416557 73.0099533,43.8549903 L72.79,44.07 C71.0049911,45.8266754 70.1125,47.0449966 70.1125,47.725 C70.1125,47.8761119 70.2468196,48.1615414 70.5154625,48.5812957 L70.6225,48.745 C70.9625017,49.2550025 71.2174991,49.51 71.3875,49.51 C72.3123046,49.51 73.3545988,48.4394187 74.5144113,46.2982253 L74.9407052,45.4861657 C75.9719065,43.4925798 76.4875,42.3263684 76.4875,41.9875 C76.4875,41.6191648 76.4308339,41.435 76.3175,41.435 Z M76.4875,52.4 C78.0741746,52.4 80.5533165,51.4366763 83.925,49.51 C87.2966835,47.5833237 90.2574872,45.6566763 92.8075,43.73 L96.6325,40.755 C97.1425026,41.1516686 97.3975,41.6333305 97.3975,42.2 C97.3975,42.7666695 97.1425026,43.2766644 96.6325,43.73 L95.7201335,44.5688108 C86.8204135,52.6796428 80.0412665,56.735 75.3825,56.735 C75.0424983,56.735 74.5325034,56.6783339 73.8525,56.565 C67.4491347,63.9883704 61.952523,67.7 57.3625,67.7 C54.4158186,67.2634546 52.5201066,66.2489058 51.6753124,64.6563246 L51.5825,64.47 C51.1291644,63.6199957 50.9025,62.5433398 50.9025,61.24 C50.9025,57.4999813 53.0558118,53.0375259 57.3625,47.8525 C61.6691882,42.6674741 67.0808007,38.8566788 73.5975,36.42 C74.1641695,36.42 74.5891653,36.5474987 74.8725,36.8025 C75.1558347,37.0575013 75.4108322,37.1991665 75.6375,37.2275 C75.8641678,37.2558335 76.1616648,37.1425013 76.53,36.8875 C76.8983352,36.6324987 77.3941636,36.4908335 78.0175,36.4625 C78.6408365,36.4341665 79.2924966,36.7883296 79.9725,37.525 C80.8791712,38.2616703 81.3325,39.1683279 81.3325,40.245 C81.3325,43.4183492 79.7175161,47.4699754 76.4875,52.4 Z M118.7325,60.73 C118.7325,61.2400025 119.05833,61.495 119.71,61.495 C120.36167,61.495 121.551658,61.0983373 123.28,60.305 C124.893119,59.5645519 126.802391,58.4538956 129.007865,56.9730014 L129.485,56.65 C131.893345,55.0066585 135.09498,52.6691818 139.09,49.6375 L140.479417,48.586908 C143.901483,46.008961 146.937487,43.7950092 149.5875,41.945 C150.097503,42.3416686 150.3525,42.8233305 150.3525,43.39 C150.3525,43.9566695 150.097503,44.4666644 149.5875,44.92 L147.1025,47.3133822 C145.932503,48.4348499 144.627507,49.6794049 143.187502,51.0470568 L142.7025,51.5075 C139.925819,54.1425132 135.690028,57.6699779 129.995,62.09 L129.229031,62.6790317 C123.941623,66.7063631 120.216147,68.72 118.0525,68.72 C113.689145,68.72 111.5075,66.3966899 111.5075,61.75 C111.5075,59.9933246 112.187493,58.1516763 113.5475,56.225 L117.2025,51.21 L117.386101,50.9294991 C117.603701,50.5894985 117.7125,50.3855003 117.7125,50.3175 C117.7125,50.2409996 117.574801,50.3136738 117.2994,50.5355246 L113.949096,53.3093806 C105.945869,59.892389 100.740381,63.8108954 98.3325,65.065 C97.8791644,65.3483347 97.3125034,65.49 96.6325,65.49 C94.7624907,65.49 93.8275,64.6400085 93.8275,62.94 C93.8275,62.3733305 93.9691653,61.8633356 94.2525,61.41 L95.185204,60.0718416 C98.0200786,56.0448988 100.230825,53.2893085 101.8175,51.805 L103.2625,50.36 C103.375834,50.2466661 103.4325,50.1333339 103.4325,50.02 C103.4325,49.9066661 103.375834,49.85 103.2625,49.85 C103.149166,49.85 102.979168,49.9633322 102.7525,50.19 L90.8391738,59.5351672 C87.3538058,62.2516241 85.4174295,63.7123903 85.03,63.9175 C84.5483309,64.1725013 84.1091687,64.3 83.7125,64.3 C83.3158313,64.3 82.6925043,64.0591691 81.8425,63.5775 C80.9924957,63.0958309 80.5675,62.5433364 80.5675,61.92 C80.5675,61.7499992 80.6524992,61.5233348 80.8225,61.24 L81.8461568,60.1051124 C86.8764487,54.4937645 90.586863,49.8287686 92.9775,46.11 L94.3375009,43.9524678 C94.765648,43.2696711 95.1686096,42.6232536 95.546388,42.0132114 L95.825,41.5625 C96.6466708,40.2308267 97.2983309,39.2816695 97.78,38.715 C98.2616691,38.1483305 98.7858305,37.865 99.3525,37.865 C99.9191695,37.865 100.556663,38.1908301 101.265,38.8425 C101.973337,39.4941699 102.3275,40.1599966 102.3275,40.84 C102.3275,41.5200034 102.100836,42.2283296 101.6475,42.965 L101.226346,43.7130965 C99.5006886,46.7466008 98.1394186,48.7355508 97.1425,49.68 C96.9724991,49.8500009 96.8875,50.0058326 96.8875,50.1475 C96.8875,50.2891674 96.9441661,50.36 97.0575,50.36 L97.3125,50.275 L108.7025,42.37 L109.283858,41.9738032 C111.825378,40.2545931 113.359911,39.395 113.8875,39.395 C114.45417,39.395 115.06333,39.5791648 115.715,39.9475 C116.36667,40.3158352 116.6925,40.7266644 116.6925,41.18 C116.6925,41.6333356 116.550835,42.0866644 116.2675,42.54 L110.7425,50.105 L110.231743,50.745713 C109.83558,51.2554615 109.6375,51.5518885 109.6375,51.635 C109.6375,51.7483339 109.665833,51.805 109.7225,51.805 L110.1475,51.55 L114.719309,48.4285743 C118.780984,45.6422825 121.805222,43.526138 123.792067,42.0801097 L125.11907,41.1005307 C127.30393,39.4709391 128.631728,38.4207716 129.1025,37.95 C129.895837,37.3833305 130.561664,37.1 131.1,37.1 C131.638336,37.1 131.992499,37.1566661 132.1625,37.27 L134.0325,38.715 C134.59917,38.9983348 134.8825,39.3666644 134.8825,39.82 C134.8825,40.2733356 134.769168,40.6416653 134.5425,40.925 L127.916358,48.0862075 L127.916358,48.0862075 L124.262795,52.0136179 C123.36751,52.9840131 122.657415,53.7644707 122.1325,54.355 C120.659159,56.1116755 119.752502,57.528328 119.4125,58.605 C118.959164,59.3983373 118.7325,60.1066636 118.7325,60.73 Z M161.9975,40.33 C160.570201,40.33 158.185687,41.7525598 154.843888,44.5977208 L154.5175,44.8775 C151.004149,47.9091818 149.2475,49.7649966 149.2475,50.445 C149.2475,50.5583339 149.332499,50.615 149.5025,50.615 C150.749173,50.615 153.228315,49.2266805 156.94,46.45 L157.575738,45.9691155 C160.863595,43.4530275 162.5075,41.7150048 162.5075,40.755 C162.5075,40.4716653 162.337502,40.33 161.9975,40.33 Z M143.8925,67.53 C139.529145,67.53 137.3475,64.8666933 137.3475,59.54 C137.3475,56.1966499 138.806652,52.6408522 141.725,48.8725 C144.643348,45.1041478 148.085814,42.0158454 152.0525,39.6075 C156.019186,37.1991546 159.532485,35.995 162.5925,35.995 C163.952507,35.995 165.213328,36.533328 166.375,37.61 C167.536672,38.686672 168.1175,39.7349949 168.1175,40.755 C168.1175,42.6250094 166.785847,44.7358216 164.1225,47.0875 C161.459153,49.4391784 158.668348,51.3374928 155.75,52.7825 L155.094139,53.1031375 C152.541112,54.3343849 150.833081,54.95 149.97,54.95 C149.034995,54.95 148.340836,54.5250042 147.8875,53.675 C147.660832,53.5049992 147.349169,53.42 146.9525,53.42 C146.555831,53.42 145.904171,54.1708258 144.9975,55.6725 C144.090829,57.1741742 143.6375,58.3924953 143.6375,59.3275 C143.6375,60.2625047 143.977497,60.8433322 144.6575,61.07 C148.964188,61.07 153.639141,59.8091793 158.6825,57.2875 L159.398728,56.923226 C164.135482,54.4747686 170.457055,50.4531174 178.363603,44.8581732 L179.742131,43.8763606 L179.742131,43.8763606 L184.647059,40.3638236 C184.66402,40.3512746 184.679167,40.3400001 184.6925,40.33 C185.202503,40.7266686 185.4575,41.2083305 185.4575,41.775 C185.4575,42.3416695 185.202503,42.8516644 184.6925,43.305 C181.859152,46.1383475 178.190023,49.3116491 173.685,52.825 C169.179977,56.3383509 164.009196,59.6674843 158.1725,62.8125 C152.335804,65.9575157 147.575852,67.53 143.8925,67.53 Z M226.8525,26.73 L231.1875,26.645 C236.797528,26.645 240.877487,27.4383254 243.4275,29.025 C244.674173,29.4216687 245.2975,29.9316635 245.2975,30.555 C245.2975,30.9800021 244.811909,31.2804878 243.840714,31.4564647 L243.261016,31.5444295 C242.099565,31.7030901 239.524438,32.0016453 235.53559,32.4401002 L229.940286,33.045148 C224.591742,33.608385 220.842511,33.9399995 218.6925,34.04 C217.615828,34.0966669 215.136686,35.9666482 211.255,39.65 C207.373314,43.3333518 203.675851,47.3849779 200.1625,51.805 L199.593207,52.5293396 C196.459388,56.5640569 194.8925,59.4109176 194.8925,61.07 C194.8925,61.3533347 195.034165,61.5941657 195.3175,61.7925 C195.600835,61.9908343 195.954998,62.09 196.38,62.09 C196.805002,62.09 197.470829,61.9200017 198.3775,61.58 C209.144221,55.2333016 219.599116,48.2917044 229.7425,40.755 C230.252503,41.1516686 230.5075,41.6333305 230.5075,42.2 C230.5075,42.7666695 230.22417,43.319164 229.6575,43.8575 L229.001111,44.4761112 L229.001111,44.4761112 L226.87815,46.4449712 C225.723355,47.5031977 223.759822,49.2615262 220.9875,51.72 C217.984152,54.3833467 215.150847,56.7633229 212.4875,58.86 C205.347464,64.6400289 200.360847,67.9833288 197.5275,68.89 C196.507495,69.1733347 195.30334,69.315 193.915,69.315 C192.52666,69.315 191.251672,68.6066738 190.09,67.19 C188.928328,65.7733262 188.3475,63.8466788 188.3475,61.41 C188.3475,58.9733212 189.919984,55.4600229 193.065,50.87 C196.210016,46.2799771 200.502473,41.5766908 205.9425,36.76 C206.452503,36.3633313 206.7075,35.9950017 206.7075,35.655 C206.7075,35.315 206.112506,35.145 204.9225,35.145 L199.5675,35.315 C192.030796,35.315 188.149168,34.4650085 187.9225,32.765 C186.165825,32.4249983 185.2875,31.9150034 185.2875,31.235 C185.2875,31.0083322 185.400832,30.8808335 185.6275,30.8525 L185.844723,30.8241666 L185.844723,30.8241666 L186.71361,30.6919445 L186.71361,30.6919445 L196.465,29.28 L196.465,29.28 C202.330029,28.4299957 209.002463,27.7216695 216.4825,27.155 L222.3475,19.335 C222.687502,18.6549966 223.87749,18.315 225.9175,18.315 C227.95751,18.315 228.9775,18.7399957 228.9775,19.59 C228.9775,19.8733348 228.750836,20.3833297 228.2975,21.12 L226.1725,24.095 C225.889165,25.0016712 225.719167,25.6816644 225.6625,26.135 C225.6625,26.5316686 226.059163,26.73 226.8525,26.73 Z M219.2875,62.26 C221.031098,62.26 223.167604,61.1597891 225.697077,58.9593356 L226.0025,58.69 C228.665847,56.3099881 230.054166,54.6666712 230.1675,53.76 C229.536068,53.2338069 228.868,52.3045257 228.163279,50.9721314 L227.407123,49.5087217 C227.020373,48.7729047 226.807167,48.405 226.7675,48.405 C225.010825,50.0483416 223.452507,51.9466559 222.0925,54.1 L221.662343,54.8341768 C219.795772,58.0651991 218.8625,60.3137868 218.8625,61.58 C218.8625,62.0333356 219.004165,62.26 219.2875,62.26 Z M237.6475,41.435 C237.104442,41.435 236.001937,42.2416557 234.339953,43.8549903 L234.12,44.07 C232.334991,45.8266754 231.4425,47.0449966 231.4425,47.725 C231.4425,47.8761119 231.57682,48.1615414 231.845463,48.5812957 L231.9525,48.745 C232.292502,49.2550025 232.547499,49.51 232.7175,49.51 C233.642305,49.51 234.684599,48.4394187 235.844411,46.2982253 L236.270705,45.4861657 C237.301906,43.4925798 237.8175,42.3263684 237.8175,41.9875 C237.8175,41.6191648 237.760834,41.435 237.6475,41.435 Z M237.8175,52.4 C239.404175,52.4 241.883316,51.4366763 245.255,49.51 C248.626684,47.5833237 251.587487,45.6566763 254.1375,43.73 L257.9625,40.755 C258.472503,41.1516686 258.7275,41.6333305 258.7275,42.2 C258.7275,42.7666695 258.472503,43.2766644 257.9625,43.73 L257.050134,44.5688108 C248.150414,52.6796428 241.371266,56.735 236.7125,56.735 C236.372498,56.735 235.862503,56.6783339 235.1825,56.565 C228.779135,63.9883704 223.282523,67.7 218.6925,67.7 C215.745819,67.2634546 213.850107,66.2489058 213.005312,64.6563246 L212.9125,64.47 C212.459164,63.6199957 212.2325,62.5433398 212.2325,61.24 C212.2325,57.4999813 214.385812,53.0375259 218.6925,47.8525 C222.999188,42.6674741 228.410801,38.8566788 234.9275,36.42 C235.494169,36.42 235.919165,36.5474987 236.2025,36.8025 C236.485835,37.0575013 236.740832,37.1991665 236.9675,37.2275 C237.194168,37.2558335 237.491665,37.1425013 237.86,36.8875 C238.228335,36.6324987 238.724164,36.4908335 239.3475,36.4625 C239.970836,36.4341665 240.622497,36.7883296 241.3025,37.525 C242.209171,38.2616703 242.6625,39.1683279 242.6625,40.245 C242.6625,43.4183492 241.047516,47.4699754 237.8175,52.4 Z" id="path-1"></path>
        <filter x="-6.2%" y="-23.7%" width="112.5%" height="150.7%" filterUnits="objectBoundingBox" id="filter-2">
            <feOffset dx="0" dy="1" in="SourceAlpha" result="shadowOffsetOuter1"></feOffset>
            <feGaussianBlur stdDeviation="5" in="shadowOffsetOuter1" result="shadowBlurOuter1"></feGaussianBlur>
            <feColorMatrix values="0 0 0 0 0   0 0 0 0 0   0 0 0 0 0  0 0 0 0.5 0" type="matrix" in="shadowBlurOuter1"></feColorMatrix>
        </filter>
    </defs>
    <g id="mockups" stroke="none" stroke-width="1" fill="none" fill-rule="evenodd">
        <g id="Cometo" fill-rule="nonzero">
            <use fill="black" fill-opacity="1" filter="url(#filter-2)" xlink:href="#path-1"></use>
            <use fill="#FFFFFF" xlink:href="#path-1"></use>
        </g>
    </g>
</svg>