<?xml version="1.0" encoding="UTF-8"?>
<svg width="119px" height="36px" viewBox="0 0 119 36" version="1.1" xmlns="http://www.w3.org/2000/svg" xmlns:xlink="http://www.w3.org/1999/xlink">
    <!-- Generator: Sketch 58 (84663) - https://sketch.com -->
    <title>Expedia</title>
    <desc>Created with Sketch.</desc>
    <defs>
        <ellipse id="path-1" cx="14.6709095" cy="14.3041368" rx="13.5841755" ry="14.3041368"></ellipse>
    </defs>
    <g id="mockups" stroke="none" stroke-width="1" fill="none" fill-rule="evenodd">
        <g id="Expedia" transform="translate(-1.000000, 0.000000)">
            <g id="Expedia-Copy">
                <path d="M56.7465367,27.2379579 L53.0129947,27.2379579 L52.9765995,27.2194421 L49.7573083,22.9909549 L46.539702,27.2194421 L46.5033068,27.2379579 L43.5111487,27.2379579 L43.4693616,27.2096397 L43.4747535,27.1540925 L48.2148927,20.884517 L43.5273243,14.6733932 L43.5219324,14.6192982 L43.5637195,14.5888017 L47.2972616,14.5888017 L47.3333198,14.6094957 L50.1549596,18.379446 L53.0295073,14.6084066 L53.0655655,14.5888017 L56.1106315,14.5888017 L56.1541036,14.6192982 L56.1470267,14.6733932 L51.6993972,20.4285215 L56.782595,27.1540925 L56.7883238,27.2096397 L56.7465367,27.2379579 L56.7465367,27.2379579 Z M82.3835929,21.7028402 L82.3418058,21.7282539 L73.7956711,21.7282539 C73.9715813,23.8688189 75.2636113,25.0930362 77.354651,25.0930362 C78.644659,25.0930362 80.0128493,24.6203402 81.9458394,23.5086696 L82.0166079,23.5591341 L82.011216,26.3924057 L81.9842566,26.4345199 C80.1853896,27.2528431 78.3774238,27.8075892 76.9603695,27.8075892 C73.2814203,27.8075892 70.6141231,24.9205857 70.6141231,20.9404273 C70.6141231,16.960995 73.2814203,14.0729023 76.9603695,14.0729023 C80.3178277,14.0729023 82.474581,16.5108083 82.474581,19.8559857 C82.474581,20.3991141 82.3872998,21.6629043 82.3835929,21.7028402 L82.3835929,21.7028402 Z M76.9603695,16.8172257 C75.3091053,16.8172257 74.1788318,17.8958584 73.8539708,19.7786552 L79.4824228,19.7775661 L79.4824228,19.6563061 C79.4824228,18.1503591 78.4539211,16.8172257 76.9603695,16.8172257 L76.9603695,16.8172257 Z M99.7471415,11.978082 C98.6987572,11.978082 97.8465027,11.072626 97.8465027,9.95768785 C97.8465027,8.81370544 98.6987572,7.88283558 99.7471415,7.88283558 C100.795189,7.88283558 101.647443,8.81370544 101.647443,9.95768785 C101.647443,11.072626 100.795189,11.978082 99.7471415,11.978082 L99.7471415,11.978082 Z M63.2325677,14.0760971 C66.9388134,14.0760971 69.5279282,16.8759678 69.5279282,20.8844444 C69.5279282,25.0929636 66.8080602,27.8086058 62.5986845,27.8086058 C62.0813525,27.8086058 61.5484227,27.752325 60.929651,27.6630837 L60.6127865,27.6158242 L60.6164934,33.8686992 C59.5918283,34.6535656 58.546776,35.0164819 57.6605132,35.1747528 L57.4423593,35.2101829 L57.4423593,14.6406457 L57.4895382,14.5887291 L60.5619006,14.5887291 C61.4829017,14.2452802 62.3641375,14.0760971 63.2325677,14.0760971 Z M95.7591025,6.60190929 L95.7591025,26.6508273 C94.8869042,27.3109251 94.0074647,27.6760792 93.2212994,27.8663073 L92.9883486,27.918248 L92.9903706,26.7840681 C91.7111463,27.4905707 90.6213119,27.8075166 89.4600351,27.8075166 C86.1062838,27.8075166 83.6701636,24.9568185 83.6701636,21.0267615 C83.6701636,17.0818193 86.4314818,14.1044153 90.0942554,14.1044153 C90.7936837,14.1044153 91.4889839,14.2033702 92.2557851,14.4156297 L92.5890123,14.5135769 L92.5890123,7.94484517 C93.7061431,7.08077721 94.8199039,6.73805445 95.7591025,6.60190929 Z M101.287872,14.5898908 L101.325615,14.6418075 L101.325615,27.1860412 L101.278773,27.2379579 L98.2080958,27.2379579 L98.1612539,27.1860412 L98.1612539,14.6418075 L98.198997,14.5898908 L101.287872,14.5898908 Z M62.712925,16.6403459 C62.1358671,16.6403459 61.551843,16.7340194 60.9012523,16.934257 L60.6181784,17.0266351 L60.6127865,25.0762632 C61.2665523,25.2621467 61.837418,25.3492796 62.3951409,25.3492796 C64.7608296,25.3492796 66.2904394,23.589558 66.2904394,20.8659286 C66.2904394,18.3379853 64.8514806,16.6403459 62.712925,16.6403459 Z M90.6263668,16.6018622 C88.3702007,16.6018622 86.9150663,18.4174941 86.9150663,21.226441 C86.9150663,23.6581751 88.0541016,25.1103902 89.9618172,25.1103902 C90.7682407,25.1103902 91.6275721,24.8471762 92.5890123,24.3040478 L92.5890123,24.3040478 L92.5890123,17.1257488 C91.8547052,16.7637842 91.2477813,16.6018622 90.6263668,16.6018622 Z M112.019674,24.2775449 C111.091259,24.8577048 110.293597,25.1387084 109.579847,25.1387084 C107.539356,25.1387084 106.318432,23.6893978 106.318432,21.2558484 C106.318432,18.4897418 107.755705,16.6312695 109.899316,16.6312695 C110.473552,16.6312695 111.165735,16.8672545 112.019674,17.3519313 L112.019674,24.2775449 Z M115.193808,14.4402401 L115.059011,14.2953816 L112.566613,14.3011905 L112.431816,14.4460489 L112.431816,14.9031336 L112.370483,14.9031336 C111.21662,14.3581899 110.231928,14.1055045 109.265433,14.1055045 C105.811595,14.1055045 103.104532,17.1961812 103.104532,21.1418495 C103.104532,25.1299951 105.528184,27.8086058 109.134343,27.8086058 C110.097468,27.8086058 111.334905,27.7381734 112.488094,26.304474 L112.488094,27.9171589 C113.30766,27.7305492 114.274155,27.3555147 115.190101,26.6468337 L115.193808,14.4402401 Z" id="Fill-5" fill="#003460"></path>
                <g id="Group">
                    <mask id="mask-2" fill="white">
                        <use xlink:href="#path-1"></use>
                    </mask>
                    <use id="Mask" fill="#003460" xlink:href="#path-1"></use>
                    <path d="M28.4305969,9.10395598 C28.4305969,9.10395598 28.1897216,8.89337601 27.8222485,8.85709386 C27.8222485,8.85709386 26.3491938,8.70770465 25.1808231,9.00339671 L20.0780507,10.4376978 L11.4136755,3.11738608 L10.5099729,3.33822717 L15.5306921,9.90713005 L16.1219065,11.549584 L11.287762,12.9094159 L1.1133929,16.7627433 L1.18980355,17.3101518 L11.8634321,14.8830446 L16.6567656,13.5356828 L17.058186,15.2381394 L16.3239733,23.4245788 L17.2083619,23.1421123 L20.638663,12.416778 L25.7545119,10.9778039 C26.901982,10.6220399 28.0748068,9.73073417 28.0748068,9.73073417 C28.3682112,9.50771356 28.4601536,9.20201582 28.4601536,9.20201582 L28.4305969,9.10395598 Z" id="Fill-8" fill="#FFC50D" mask="url(#mask-2)" transform="translate(14.786773, 13.270982) rotate(-7.000000) translate(-14.786773, -13.270982) "></path>
                </g>
                <path d="M34.4393089,23.3429472 L41.2958935,23.3408155 C41.193097,24.2489244 40.9334164,25.3204645 40.3390496,26.4076372 L34.4539515,26.4076372 L33.2858369,26.4047949 L33.2051536,26.4065713 C32.3334754,26.4065713 31.6136012,25.6039821 31.5281367,24.581116 L31.5152871,24.5448769 L31.5152871,16.1907011 L31.5152871,8.46360366 L31.5281367,8.42736457 C31.6136012,7.40449852 32.3334754,6.60190929 33.2051536,6.60190929 L33.2858369,6.60475157 L41.281251,6.60297515 C41.1784545,7.51072879 40.9190727,8.60358602 40.3244071,9.6904034 L34.4393089,9.6904034 L34.4393089,14.0636087 L40.2649405,14.0636087 L40.3067763,14.1140592 L40.3067763,17.1457077 L40.2649405,17.1961582 L34.4393089,17.1961582 L34.4393089,23.3429472 Z" id="Mask" fill="#003460"></path>
                <path d="M118.454754,15.3250427 C118.613244,15.3250427 118.75462,15.3139708 118.75462,15.119258 C118.75462,14.9619606 118.616221,14.9333264 118.485634,14.9333264 L118.230041,14.9333264 L118.230041,15.3250427 L118.454754,15.3250427 Z M118.230041,16.0382261 L118.042532,16.0382261 L118.042532,14.7695386 L118.513537,14.7695386 C118.80559,14.7695386 118.951058,14.8806394 118.951058,15.1307117 C118.951058,15.3571131 118.811542,15.457142 118.630358,15.4792858 L118.981938,16.0382261 L118.771734,16.0382261 L118.445825,15.4888306 L118.230041,15.4888306 L118.230041,16.0382261 Z M118.456615,16.3211323 C118.942129,16.3211323 119.325332,15.9313249 119.325332,15.4014007 C119.325332,14.8806394 118.942129,14.4873959 118.456615,14.4873959 C117.966264,14.4873959 117.583061,14.8806394 117.583061,15.4014007 C117.583061,15.9313249 117.966264,16.3211323 118.456615,16.3211323 L118.456615,16.3211323 Z M117.367276,15.4014007 C117.367276,14.7695386 117.866928,14.3041368 118.456615,14.3041368 C119.041092,14.3041368 119.540744,14.7695386 119.540744,15.4014007 C119.540744,16.0382261 119.041092,16.5047732 118.456615,16.5047732 C117.866928,16.5047732 117.367276,16.0382261 117.367276,15.4014007 L117.367276,15.4014007 Z" id="Fill-13" fill="#003460"></path>
                <path d="M26.082361,25.2279067 C26.2408508,25.2279067 26.3822267,25.2168348 26.3822267,25.022122 C26.3822267,24.8648246 26.2438272,24.8361903 26.1132405,24.8361903 L25.8576478,24.8361903 L25.8576478,25.2279067 L26.082361,25.2279067 Z M25.8576478,25.94109 L25.6701387,25.94109 L25.6701387,24.6724025 L26.1411436,24.6724025 C26.4331964,24.6724025 26.5786648,24.7835033 26.5786648,25.0335757 C26.5786648,25.259977 26.4391491,25.3600059 26.2579648,25.3821497 L26.6095442,25.94109 L26.3993406,25.94109 L26.073432,25.3916945 L25.8576478,25.3916945 L25.8576478,25.94109 Z M26.0842212,26.2239963 C26.5697358,26.2239963 26.9529388,25.8341889 26.9529388,25.3042646 C26.9529388,24.7835033 26.5697358,24.3902598 26.0842212,24.3902598 C25.5938702,24.3902598 25.2106671,24.7835033 25.2106671,25.3042646 C25.2106671,25.8341889 25.5938702,26.2239963 26.0842212,26.2239963 L26.0842212,26.2239963 Z M24.9948829,25.3042646 C24.9948829,24.6724025 25.494535,24.2070007 26.0842212,24.2070007 C26.6686989,24.2070007 27.168351,24.6724025 27.168351,25.3042646 C27.168351,25.94109 26.6686989,26.4076372 26.0842212,26.4076372 C25.494535,26.4076372 24.9948829,25.94109 24.9948829,25.3042646 L24.9948829,25.3042646 Z" id="Fill-13" fill="#003460"></path>
            </g>
        </g>
    </g>
</svg>