<?xml version="1.0" encoding="UTF-8"?>
<svg width="532px" height="115px" viewBox="0 0 532 115" version="1.1" xmlns="http://www.w3.org/2000/svg" xmlns:xlink="http://www.w3.org/1999/xlink">
    <!-- Generator: Sketch 58 (84663) - https://sketch.com -->
    <title>LosAngeles</title>
    <desc>Created with Sketch.</desc>
    <defs>
        <path d="M59.9804764,71.9337539 L59.9804764,83.9211356 L10,83.9211356 L10,13.9947424 L21.9953143,13.9947424 L21.9953143,71.9337539 L59.9804764,71.9337539 Z M107.461929,77.0283912 C102.530497,81.9565616 96.5329001,84.4206099 89.4689574,84.4206099 C82.4050148,84.4206099 76.3907576,81.9399126 71.4260055,76.9784437 C66.4612533,72.0169748 63.9789145,66.006695 63.9789145,58.9474238 C63.9789145,51.8881526 66.4612533,45.8778727 71.4260055,40.9164038 C76.3907576,35.9549349 82.4050148,33.4742376 89.4689574,33.4742376 C96.5329001,33.4742376 102.547157,35.9549349 107.511909,40.9164038 C112.476662,45.8778727 114.959,51.8881526 114.959,58.9474238 C114.959,66.006695 112.460002,72.0336238 107.461929,77.0283912 Z M79.872706,68.5373291 C82.5383447,71.1346081 85.7370632,72.4332282 89.4689574,72.4332282 C93.2008517,72.4332282 96.3829102,71.1179592 99.0152284,68.4873817 C101.647547,65.8568042 102.963686,62.6768501 102.963686,58.9474238 C102.963686,55.2179975 101.647547,52.0380433 99.0152284,49.4074658 C96.3829102,46.7768884 93.2008517,45.4616193 89.4689574,45.4616193 C85.7370632,45.4616193 82.5550047,46.7768884 79.9226865,49.4074658 C77.2903682,52.0380433 75.9742288,55.2179975 75.9742288,58.9474238 C75.9742288,62.6768501 77.2737082,65.8734532 79.872706,68.5373291 Z M140.449043,53.0536278 C145.447116,53.5864029 149.612114,55.2845984 152.944162,58.148265 C156.276211,61.0119316 157.94221,64.5748122 157.94221,68.8370137 C157.94221,73.165812 156.242891,76.8452355 152.844201,79.8753943 C149.445512,82.9055532 145.313834,84.4206099 140.449043,84.4206099 C134.118151,84.4206099 128.653674,83.2218837 124.055447,80.8243954 L128.353768,69.8359621 C131.752457,71.5674815 135.251056,72.56642 138.849668,72.8328076 C143.11469,73.0991952 145.480409,72.0669587 145.946896,69.7360673 C146.146819,68.60392 145.680339,67.5716836 144.547442,66.639327 C143.414546,65.7069705 142.048427,65.1409053 140.449043,64.9411146 C135.450971,64.4083394 131.285973,62.710144 127.953924,59.8464774 C124.621876,56.9828108 122.955877,53.4199302 122.955877,49.1577287 C122.955877,44.8289303 124.655196,41.1328579 128.053885,38.0694006 C131.452575,35.0059433 135.584253,33.4742376 140.449043,33.4742376 C146.646653,33.4742376 152.111131,34.7062618 156.84264,37.170347 L152.64428,48.1587802 C149.24559,46.4272609 145.713672,45.4283224 142.048419,45.1619348 L141.621235,45.1393213 C137.625191,44.9670216 135.401865,46.0067969 134.951191,48.2586751 C134.751268,49.3908223 135.217748,50.4230588 136.350644,51.3554154 C137.483541,52.2877719 138.84966,52.8538371 140.449043,53.0536278 Z M193.228426,20.8874869 C198.093217,15.9593164 203.990854,13.4952681 210.921515,13.4952681 C217.852176,13.4952681 223.749813,15.9426674 228.614604,20.8375394 C233.479394,25.7324114 235.911753,31.6094995 235.911753,38.46898 L235.911753,83.9211356 L223.916439,83.9211356 L223.916439,64.9411146 L197.926591,64.9411146 L197.926591,83.9211356 L185.931277,83.9211356 L185.931277,38.46898 C185.931277,31.6094995 188.363636,25.7490604 193.228426,20.8874869 Z M223.916439,52.9537329 L223.916439,38.46898 C223.916439,34.539763 222.733579,31.3931068 220.367825,29.0289169 C218.002071,26.6647271 214.853332,25.4826498 210.921515,25.4826498 C206.989698,25.4826498 203.840959,26.6647271 201.475205,29.0289169 C199.109451,31.3931068 197.926591,34.539763 197.926591,38.46898 L197.926591,52.9537329 L223.916439,52.9537329 Z M271.897696,33.4742376 C279.361485,33.4742376 285.175822,35.888339 289.340882,40.7166141 C293.505943,45.5448892 295.588442,51.8215527 295.588442,59.5467928 L295.588442,83.9211356 L283.593128,83.9211356 L283.593128,59.2471083 C283.593128,55.1846975 282.493568,51.8715516 280.294416,49.307571 C278.095264,46.7435904 275.296386,45.4616193 271.897696,45.4616193 C268.299084,45.4616193 265.350265,46.4439089 263.051152,48.4085174 C260.752038,50.3731258 259.602499,53.4864841 259.602499,57.7486856 L259.602499,83.9211356 L247.607185,83.9211356 L247.607185,56.150368 C247.607185,54.6186394 247.573865,53.4032642 247.507224,52.5042061 C247.440583,51.605148 247.307303,50.5895605 247.10738,49.4574132 C246.907458,48.325266 246.540937,47.4928172 246.007809,46.9600421 C245.474682,46.4272669 244.774962,46.1608833 243.908629,46.1608833 L245.807888,34.1735016 L246.475222,34.2632223 C250.199091,34.7768808 252.942129,35.3796359 254.704412,36.0715037 C256.570359,36.8040696 257.869839,38.1359875 258.602889,40.0672976 C261.934938,35.6719023 266.366496,33.4742376 271.897696,33.4742376 Z M351.366654,33.9737119 L353.265912,45.9610936 C352.399579,45.9610936 351.699859,46.2274772 351.166732,46.7602524 C350.633604,47.2930275 350.267084,48.1254763 350.067161,49.2576236 C349.867238,50.3897708 349.733958,51.4053583 349.667317,52.3044164 L349.645181,52.6348641 C349.593298,53.4938202 349.567357,54.5990531 349.567357,55.9505783 L349.567357,85.8191377 C349.567357,91.0136958 347.534837,95.3424292 343.469738,98.8054679 C339.404639,102.268507 334.340002,104 328.275674,104 C320.012193,104 314.014596,102.102017 310.282702,98.3059937 L317.279969,89.1156677 C319.545762,91.0469778 323.21096,92.0126183 328.275674,92.0126183 C330.941312,92.0126183 333.157091,91.3133614 334.923077,89.9148265 C336.689063,88.5162916 337.572042,87.1510757 337.572042,85.8191377 L337.572042,83.5215563 C335.039685,84.1209283 332.007567,84.4206099 328.475595,84.4206099 C324.477137,84.4206099 320.845259,83.671406 317.579852,82.1729758 C314.314444,80.6745456 311.698825,78.6933176 309.732917,76.2292324 C307.767008,73.7651472 306.250949,71.1013112 305.184693,68.2376446 C304.118438,65.373978 303.585318,62.4770564 303.585318,59.5467928 C303.585318,51.8215527 305.667817,45.5448892 309.832878,40.7166141 C313.997938,35.888339 319.812276,33.4742376 327.276064,33.4742376 C332.340778,33.4742376 336.772336,34.6396659 340.570871,36.9705573 C342.236895,35.6386193 345.835453,34.6396809 351.366654,33.9737119 Z M328.475595,72.4332282 C332.007567,72.4332282 335.039685,71.9670569 337.572042,71.0347003 L337.572042,53.6529968 C337.038914,48.1920512 333.606956,45.4616193 327.276064,45.4616193 C324.477143,45.4616193 321.844865,46.6936435 319.379149,49.1577287 C316.913433,51.6218139 315.680594,54.9849068 315.680594,59.2471083 C315.680594,62.7767439 316.830133,65.8568042 319.129246,68.4873817 C321.42836,71.1179592 324.543778,72.4332282 328.475595,72.4332282 Z M384.853573,84.7202944 C379.588936,84.7202944 374.940799,83.3883764 370.90902,80.7245005 C366.877241,78.0606246 363.928423,74.8640215 362.062476,71.1345952 C360.196528,67.4051689 359.263569,63.5426067 359.263569,59.5467928 C359.263569,51.9547465 361.496008,45.7113809 365.960953,40.8165089 C370.425898,35.9216369 376.423495,33.4742376 383.953924,33.4742376 C390.218175,33.4742376 395.366113,34.9060495 399.397891,37.7697161 C403.42967,40.6333827 405.678769,44.5958387 406.145256,49.6572029 C406.478461,55.4511331 404.712501,60.0462501 400.847325,63.4426919 C397.049959,66.779547 391.676754,68.7664793 384.727554,69.4035455 L384.353768,69.4363828 C381.421565,69.7027703 377.823007,69.4030888 373.557985,68.5373291 C374.291036,70.0024609 375.840415,71.0513463 378.206169,71.6840168 C380.571924,72.3166874 382.787703,72.6330179 384.853573,72.6330179 C387.319289,72.6330179 390.084847,72.3166874 393.150332,71.6840168 C396.215816,71.0513463 398.614855,70.1023547 400.34752,68.8370137 L405.845373,79.7255521 C405.409985,80.0984947 404.771426,80.5294445 403.929678,81.0184129 L403.746193,81.1240799 C402.813219,81.6568551 400.5308,82.38941 396.898868,83.3217666 C393.266935,84.2541231 389.251877,84.7202944 384.853573,84.7202944 Z M371.658727,57.3491062 C376.177818,58.1878109 380.321602,58.2765191 384.090198,57.6152327 L384.453729,57.5488959 C387.119368,57.0827176 389.318487,56.3002158 391.051152,55.201367 C392.783817,54.1025182 393.650137,52.8205471 393.650137,51.3554154 C393.650137,49.623896 392.767157,48.2087331 391.001171,47.1098843 C389.235186,46.0110355 386.886127,45.4616193 383.953924,45.4616193 C380.22203,45.4616193 377.089951,46.6436966 374.557595,49.0078864 C372.025238,51.3720763 371.058958,54.1524551 371.658727,57.3491062 Z M426.137446,9 L426.137446,83.9211356 L414.142132,83.9211356 L414.142132,9 L426.137446,9 Z M459.724326,84.7202944 C454.45969,84.7202944 449.811552,83.3883764 445.779774,80.7245005 C441.747995,78.0606246 438.799176,74.8640215 436.933229,71.1345952 C435.067282,67.4051689 434.134323,63.5426067 434.134323,59.5467928 C434.134323,51.9547465 436.366761,45.7113809 440.831706,40.8165089 C445.296651,35.9216369 451.294248,33.4742376 458.824678,33.4742376 C465.088929,33.4742376 470.236866,34.9060495 474.268645,37.7697161 C478.300424,40.6333827 480.549523,44.5958387 481.016009,49.6572029 C481.349214,55.4511331 479.583255,60.0462501 475.718079,63.4426919 C471.920713,66.779547 466.547508,68.7664793 459.598308,69.4035455 L459.224522,69.4363828 C456.292319,69.7027703 452.693761,69.4030888 448.428739,68.5373291 C449.161789,70.0024609 450.711169,71.0513463 453.076923,71.6840168 C455.442677,72.3166874 457.658456,72.6330179 459.724326,72.6330179 C462.190042,72.6330179 464.955601,72.3166874 468.021086,71.6840168 C471.08657,71.0513463 473.485609,70.1023547 475.218274,68.8370137 L480.716127,79.7255521 C480.280739,80.0984947 479.642179,80.5294445 478.800431,81.0184129 L478.616947,81.1240799 C477.683973,81.6568551 475.401554,82.38941 471.769621,83.3217666 C468.137688,84.2541231 464.12263,84.7202944 459.724326,84.7202944 Z M446.529481,57.3491062 C451.048571,58.1878109 455.192356,58.2765191 458.960951,57.6152327 L459.324483,57.5488959 C461.990121,57.0827176 464.18924,56.3002158 465.921906,55.201367 C467.654571,54.1025182 468.52089,52.8205471 468.52089,51.3554154 C468.52089,49.623896 467.637911,48.2087331 465.871925,47.1098843 C464.105939,46.0110355 461.75688,45.4616193 458.824678,45.4616193 C455.092784,45.4616193 451.960705,46.6436966 449.428348,49.0078864 C446.895992,51.3720763 445.929712,54.1524551 446.529481,57.3491062 Z M504.506833,53.0536278 C509.504906,53.5864029 513.669904,55.2845984 517.001952,58.148265 C520.334001,61.0119316 522,64.5748122 522,68.8370137 C522,73.165812 520.300681,76.8452355 516.901991,79.8753943 C513.503302,82.9055532 509.371624,84.4206099 504.506833,84.4206099 C498.175941,84.4206099 492.711464,83.2218837 488.113237,80.8243954 L492.411558,69.8359621 C495.810247,71.5674815 499.308846,72.56642 502.907458,72.8328076 C507.17248,73.0991952 509.538199,72.0669587 510.004686,69.7360673 C510.204609,68.60392 509.738129,67.5716836 508.605232,66.639327 C507.472336,65.7069705 506.106217,65.1409053 504.506833,64.9411146 C499.508761,64.4083394 495.343763,62.710144 492.011714,59.8464774 C488.679666,56.9828108 487.013667,53.4199302 487.013667,49.1577287 C487.013667,44.8289303 488.712986,41.1328579 492.111675,38.0694006 C495.510365,35.0059433 499.642043,33.4742376 504.506833,33.4742376 C510.704443,33.4742376 516.168921,34.7062618 520.90043,37.170347 L516.70207,48.1587802 C513.30338,46.4272609 509.771462,45.4283224 506.106209,45.1619348 L505.679025,45.1393213 C501.682981,44.9670216 499.459655,46.0067969 499.008981,48.2586751 C498.809058,49.3908223 499.275538,50.4230588 500.408434,51.3554154 C501.541331,52.2877719 502.90745,52.8538371 504.506833,53.0536278 Z" id="path-1"></path>
        <filter x="-3.0%" y="-15.3%" width="106.1%" height="132.6%" filterUnits="objectBoundingBox" id="filter-2">
            <feOffset dx="0" dy="1" in="SourceAlpha" result="shadowOffsetOuter1"></feOffset>
            <feGaussianBlur stdDeviation="5" in="shadowOffsetOuter1" result="shadowBlurOuter1"></feGaussianBlur>
            <feColorMatrix values="0 0 0 0 0   0 0 0 0 0   0 0 0 0 0  0 0 0 0.5 0" type="matrix" in="shadowBlurOuter1"></feColorMatrix>
        </filter>
    </defs>
    <g id="mockups" stroke="none" stroke-width="1" fill="none" fill-rule="evenodd">
        <g id="LosAngeles" fill-rule="nonzero">
            <use fill="black" fill-opacity="1" filter="url(#filter-2)" xlink:href="#path-1"></use>
            <use fill="#FFFFFF" xlink:href="#path-1"></use>
        </g>
    </g>
</svg>