<?xml version="1.0" encoding="UTF-8"?>
<svg width="120px" height="33px" viewBox="0 0 120 33" version="1.1" xmlns="http://www.w3.org/2000/svg" xmlns:xlink="http://www.w3.org/1999/xlink">
    <!-- Generator: Sketch 58 (84663) - https://sketch.com -->
    <title>priceline</title>
    <desc>Created with Sketch.</desc>
    <g id="Page-2" stroke="none" stroke-width="1" fill="none" fill-rule="evenodd">
        <g id="expedia_p1_concept_active" transform="translate(-538.000000, -103.000000)">
            <g id="p4" transform="translate(520.000000, 75.000000)">
                <g id="travelocity" transform="translate(18.000000, 28.000000)">
                    <g id="Travelocity_com-Copy">
                        <path d="M34.2088992,18.8489233 L35.765032,18.8489233 L35.765032,20.9340264 L35.802598,20.9340264 C36.5514945,19.497361 37.3573459,18.6856391 38.9671444,18.6856391 L38.9671444,20.1448198 C38.1254581,20.1638109 37.5036282,20.4966442 36.9740687,21.0467982 C36.3338886,21.7128565 35.7773232,22.8777733 35.765032,23.9162134 L35.765032,29.3787921 L34.2088992,29.3787921 L34.2088992,18.8489233" id="Fill-1" fill="#003C68"></path>
                        <path d="M40.4940258,20.8648243 C41.2337665,19.6751857 42.9189157,18.6856391 45.1159538,18.6856391 C47.0909454,18.6856391 49.4040864,19.5185585 49.4040864,21.7747169 L49.4040864,26.9648578 C49.4040864,28.0934156 49.51625,28.6481208 49.6731961,29.1825295 L47.763305,29.1825295 L47.5852116,27.7562269 C46.7762239,28.5468301 45.4742139,29.3787921 43.7270741,29.3787921 C41.9318346,29.3787921 40.1567057,28.4283067 40.1567057,26.5489725 C40.1567057,24.2897505 42.3578904,23.1610011 47.5395998,22.3504844 L47.5395998,21.7967366 C47.5395998,20.4294085 46.5303347,19.9135729 45.1379304,19.9135729 C43.3449715,19.9135729 42.470054,20.8246144 42.1557471,21.5181395 L40.4940258,20.8648243 Z M47.5395998,23.6169048 C43.8384084,24.190949 42.0213996,25.141626 42.0213996,26.5679286 C42.0213996,27.5182226 43.0540925,28.1506669 43.9514013,28.1506669 C45.1159538,28.1506669 46.5973012,27.4016139 47.5395998,26.4476818 L47.5395998,23.6169048 L47.5395998,23.6169048 Z" id="Fill-2" fill="#003C68"></path>
                        <polyline id="Fill-3" fill="#003C68" points="56.1199179 29.3787921 54.0127255 29.3787921 50.8627574 18.6856391 52.5200323 18.6856391 55.1169692 27.5295644 55.1558869 27.5295644 57.7531875 18.6856391 59.1896865 18.6856391 56.1199179 29.3787921"></polyline>
                        <polyline id="Fill-4" fill="#003C68" points="73.4644221 15.1212548 73.4644221 29.3787921 72.2748608 29.3787921 72.2748608 15.8422004 73.4644221 15.1212548"></polyline>
                        <path d="M80.6014955,29.3787921 C77.5864456,29.3787921 75.8435447,27.0029614 75.8435447,24.0343219 C75.8435447,21.0616613 77.5864456,18.6856391 80.6014955,18.6856391 C83.6163492,18.6856391 85.360035,21.0616613 85.360035,24.0343219 C85.360035,27.0029614 83.6163492,29.3787921 80.6014955,29.3787921 Z M80.6014955,19.9135729 C78.774805,19.9135729 77.6074421,21.3802769 77.6074421,24.0343219 C77.6074421,26.6862606 78.774805,28.1506669 80.6014955,28.1506669 C82.4277935,28.1506669 83.5939791,26.6862606 83.5939791,24.0343219 C83.5939791,21.3802769 82.4277935,19.9135729 80.6014955,19.9135729 L80.6014955,19.9135729 Z" id="Fill-5" fill="#003C68"></path>
                        <path d="M94.1208471,21.9535552 C93.685099,20.7066654 92.7906154,19.9135729 91.4386063,19.9135729 C89.4971979,19.9135729 88.3621556,21.4179977 88.3621556,24.0343219 C88.3621556,26.6466251 89.4971979,28.1506669 91.4386063,28.1506669 C92.8769181,28.1506669 93.685099,27.7164 94.5574019,26.2512278 L96.0660867,26.7651486 C94.9302378,28.5077691 93.685099,29.3787921 91.4386063,29.3787921 C88.6015045,29.3787921 86.5495963,27.3608295 86.5495963,24.0343219 C86.5495963,20.7066654 88.6015045,18.6856391 91.4386063,18.6856391 C93.7726115,18.6856391 95.1062712,19.8735545 95.8255279,21.4792699 L94.1208471,21.9535552" id="Fill-6" fill="#003C68"></path>
                        <polygon id="Fill-7" fill="#003C68" points="97.255648 29.3787921 98.4452093 29.3787921 98.4452093 18.6856391 97.255648 18.6856391"></polygon>
                        <path d="M29.1454047,28.1425594 C28.2904204,28.1425594 27.9442478,27.9049113 27.9442478,27.4276877 L27.9442478,20.0509593 L30.0615668,20.0509593 L30.3875977,18.8151121 L27.9442478,18.8151121 L27.9442478,15.1212548 L26.2502797,15.8629174 L26.2502797,18.8151121 L24.6924088,18.8151121 L24.6924088,20.0509593 L26.2502797,20.0509593 L26.2502797,27.6655285 C26.4225189,28.9817483 27.1495002,29.3787921 28.737113,29.3787921 C29.4266346,29.3787921 29.8351145,29.3275234 30.3175726,29.2348156 L30.6402153,28.0153512 C30.0482018,28.1059389 29.6274863,28.1425594 29.1454047,28.1425594" id="Fill-8" fill="#003C68"></path>
                        <path d="M117.47819,18.6856391 L113.510482,29.9756045 C112.62859,32.2895662 110.91309,32.9431765 109.438196,32.9431765 C108.918518,32.9431765 108.266014,32.8623672 107.9617,32.8239876 L108.347953,31.5900547 C108.566522,31.6091481 108.848199,31.6492634 109.193983,31.6492634 C110.146594,31.6492634 111.599851,31.4506153 112.142368,29.1769618 L108.218534,18.6856391 L109.865118,18.6856391 L112.899248,26.6041789 L112.942922,26.6041789 L115.588195,18.6856391 L117.47819,18.6856391" id="Fill-9" fill="#003C68"></path>
                        <path d="M105.276763,28.1425594 C104.420838,28.1425594 104.075983,27.9049113 104.075983,27.4276877 L104.075983,20.0509593 L106.192737,20.0509593 L106.519521,18.8151121 L104.075983,18.8151121 L104.075983,15.1212548 L102.380509,15.8629174 L102.380509,18.8151121 L100.824332,18.8151121 L100.824332,20.0509593 L102.380509,20.0509593 L102.380509,27.6655285 C102.555007,28.9817483 103.280482,29.3787921 104.869601,29.3787921 C105.558558,29.3787921 105.965908,29.3275234 106.449872,29.2348156 L106.772138,28.0153512 C106.179937,28.1059389 105.759033,28.1425594 105.276763,28.1425594" id="Fill-10" fill="#003C68"></path>
                        <path d="M68.7338754,26.462234 C68.0715526,27.5007983 66.9861977,28.1506669 65.5982702,28.1506669 C63.7055123,28.1506669 62.2101482,26.5679286 62.2101482,24.309664 L69.8957382,24.309664 L69.8957382,23.3601359 C69.8957382,20.070583 67.6690719,18.6856391 65.2900002,18.6856391 C62.4730425,18.6856391 60.3792478,20.7066654 60.3792478,24.0343219 C60.3792478,27.794522 63.0454278,29.3787921 65.5982702,29.3787921 C67.7840373,29.3787921 68.5401638,29.198422 69.877832,27.5007983 L68.7338754,26.462234 Z M65.3353759,19.9135729 C67.0529387,19.9135729 68.0648378,21.1805678 68.0648378,23.0821131 L62.2528787,23.0821131 C62.3851397,21.1805678 63.4206423,19.9135729 65.3353759,19.9135729 L65.3353759,19.9135729 Z" id="Fill-11" fill="#003C68"></path>
                        <polygon id="Fill-12" fill="#003C68" points="97.255648 16.3093829 98.4452093 16.3093829 98.4452093 15.1212548 97.255648 15.1212548"></polygon>
                        <path d="M2.66230412,19.8047581 C2.93648262,19.6970087 3.22072461,19.6693072 3.50332358,19.5808533 C3.07387994,19.1494737 2.59452965,18.7540105 2.22402926,18.246786 C2.11045569,18.1071321 2.16693441,18.0309051 2.25997026,18.0020573 C2.34766631,18.0139021 2.28543703,17.8373765 2.34129962,17.7619137 C2.52983585,17.7040271 2.51114653,17.5334239 2.61650501,17.4226178 C2.62369321,17.38097 2.59719956,17.2531608 2.64731158,17.2183906 C2.69701286,17.1826652 2.79128097,17.1536264 2.87322646,17.2063548 C3.22051924,17.585006 3.62798752,17.8461646 4.03709882,18.1088515 C4.52836099,18.4214011 5.03132965,18.6535208 5.46570234,19.0440168 C5.50780466,19.0499392 5.63452237,19.1072527 5.64643424,19.0270138 C5.70804739,18.6174133 5.8518114,18.2603502 6.0397315,17.9095915 C6.10216616,17.7932451 6.12681142,17.6285643 6.23175914,17.5183313 C6.35683383,17.283728 6.6511393,17.1135069 6.89615426,16.9793933 C7.28493322,16.7789871 7.74990711,16.9646829 8.01915656,16.6662705 C8.11917524,16.5957749 8.28799526,16.6603481 8.37712895,16.6714288 C8.62851059,16.7866289 8.99777873,16.7111661 9.19247627,16.9027843 C8.8622298,17.6107971 8.83922756,18.35721 8.59195346,19.1173781 C8.56710282,19.2805306 8.44243889,19.5143697 8.56792433,19.5726384 C8.95054198,19.7061789 9.96140836,19.545319 10.0111096,19.5103577 C10.5516623,19.4977487 11.0394331,19.5181906 11.5610911,19.6297608 C11.9506915,19.7216535 12.2400679,19.8842328 12.5610724,20.1343107 C13.127708,20.5414277 13.111894,21.2481032 13.0636303,21.8659428 C13.0568529,21.9079727 12.800953,22.1238535 12.7120247,22.1133461 C12.6684847,22.1074237 12.6485631,21.9375847 12.6039963,21.9316623 C12.4049858,22.0730356 11.9905347,22.4358301 11.8533427,22.4600928 C11.8081598,22.4539793 11.5313114,22.2096328 11.4066474,22.1523193 C10.9546123,21.8842831 10.4516436,21.9438891 9.94990724,22.0033041 C9.35965328,22.0520206 8.78911553,21.977322 8.21796165,22.1953044 C8.43217003,22.5565705 8.80924249,22.7306125 9.12511257,23.0210009 C9.63383179,23.5047269 10.1622672,23.8654199 10.7225361,24.3141847 C11.0745526,24.6519523 11.4403293,24.9077615 11.6500194,25.3095292 C11.5050231,25.3748666 11.6376967,25.440395 11.581218,25.5173862 C11.4881822,25.5468071 11.498451,25.4157502 11.4105496,25.4031413 C11.3236751,25.3920607 11.2616512,25.5089802 11.2916362,25.5968609 C11.3292202,25.6429028 11.2082531,25.8570642 11.1141904,25.8868673 C11.0640783,25.9222106 10.8572635,26.0450525 10.7788095,26.0309152 C10.734448,26.0221271 10.4592426,25.9204912 10.4875846,25.9514405 C10.589041,26.0547958 10.6588692,26.2420199 10.6342239,26.2744976 C10.4128274,26.2454587 10.3021291,26.2189035 10.1450155,26.0739003 C9.42106105,25.5196787 8.79178544,24.9387108 8.02922004,24.3388295 C7.75339852,24.0942919 7.57615803,23.7790676 7.24960835,23.5696822 C6.72589659,24.6685732 6.36278977,25.4608369 5.83846188,26.5597278 C5.71256569,26.7505818 5.64705037,27.2625824 5.53162841,27.32429 C5.45748725,27.3638363 5.12970531,26.9534716 4.97300254,26.6527667 C4.96560896,26.0030226 5.03995549,25.7428193 5.10218477,25.0407289 L5.11964183,24.9186511 C5.16749471,24.0069843 5.46570234,23.2133833 5.42503766,22.2906358 C5.43838718,22.2082954 5.30448127,22.1912924 5.17283451,22.1748626 C3.84897334,22.0428505 2.56865213,21.9190533 1.24951464,21.7473038 C0.942475784,21.7069933 0.627837976,21.7079485 0.332094867,21.5860618 C0.294510846,21.5392558 0.124663936,21.4756378 0.0800970921,21.4697154 C0.0431292035,21.4238646 0.0431292035,21.4238646 0,21.417178 C0.517550441,20.9424312 0.987248005,20.4541201 1.70237127,20.1499764 C1.88967524,20.0710748 2.42365586,19.8983701 2.66230412,19.8047581" id="Fill-13" fill="#F78004"></path>
                        <path d="M13.1284815,24.8223274 C13.0569504,24.7994809 13.0956003,24.728621 13.0956003,24.6989919 C13.1609782,24.5752994 13.327115,24.6070703 13.4263355,24.6067134 C13.7578399,24.5156843 14.1216487,24.6081413 14.4525762,24.5163982 C14.5189155,24.4864122 14.5850625,24.3944906 14.6183284,24.3944906 C14.8842625,24.3025691 15.1161618,24.2406336 15.3826728,24.1799475 C15.4467047,24.1503184 15.6126492,24.0576829 15.5476559,23.9652259 C15.249225,23.6883904 14.9523325,23.4113763 14.821769,23.0731407 C14.7210101,22.8869773 14.5552579,22.7347266 14.5569885,22.5498126 C14.5569885,22.3961341 14.7563911,22.3663265 14.9207973,22.4273696 C15.6491839,22.7973761 16.1433639,23.3514042 16.6727325,23.9370248 C16.7721454,24.0601818 16.8715582,23.7833462 16.9054009,23.6912462 C17.1380693,23.199689 17.3055521,22.6772534 17.6039829,22.1856962 C17.6697454,22.0325531 17.8030009,21.849424 17.9699068,21.8178315 C18.2335336,21.7578594 18.3667891,21.6043594 18.598496,21.4815593 C18.7636714,21.4205163 18.8965423,21.4820948 19.0626791,21.3901732 C19.1609382,21.3605442 19.2938092,21.5127948 19.4268724,21.4531797 C19.6255058,21.3284163 19.7916426,21.4226581 19.9904683,21.4535366 C20.1210318,21.5152936 20.1550668,21.6375582 20.1210318,21.7616077 C19.9210524,22.1905154 19.8202935,22.6513725 19.5232086,23.0813512 C19.2901557,23.4183374 19.0909454,23.7258729 18.8253958,24.0635731 C18.8253958,24.0942731 18.7913608,24.1558516 18.8578924,24.1870871 C19.0215295,24.218144 19.2218935,24.187444 19.3545721,24.2483086 C19.8510596,24.4035935 20.3479315,24.3414796 20.8767233,24.4360784 C21.1422729,24.4976569 21.1413115,24.8371419 21.3728262,25.0215205 C21.504928,25.1129066 21.2722596,25.2053636 21.1403501,25.2362421 C20.7757722,25.3279851 20.4119634,25.2042927 20.0473855,25.2963927 C19.4176426,25.4170509 18.822896,25.2935369 18.2271881,25.5071875 C18.4233217,25.6921016 18.6217629,25.8454231 18.7873228,26.0310511 C18.9524981,26.2464866 19.1186349,26.4613867 19.283041,26.6778932 C19.4480241,26.9233148 19.5462832,27.1694503 19.6126225,27.4148719 C19.6774236,27.5385644 19.6441578,27.6920645 19.6431963,27.846457 C19.5791644,27.8152215 19.5791644,27.6920645 19.5118637,27.660829 C19.4461012,27.660829 19.3801464,27.7825581 19.2795799,27.752929 C19.1820899,27.722586 19.1490164,27.660829 19.1149814,27.598715 C18.9836487,27.4746656 18.885005,27.321344 18.8194349,27.16713 C18.5883048,26.7059159 18.1241217,26.3987373 17.6939737,26.0899523 C17.2957454,26.858702 16.9953916,27.6253098 16.4321803,28.3622886 C16.3979531,28.4240456 16.2985402,28.4240456 16.1991274,28.4240456 C16.1652847,28.3919176 16.1000991,28.4847316 16.0668333,28.5150747 C16.0343366,28.4536746 15.9681896,28.4240456 15.9349237,28.3919176 C15.7691716,28.2682252 15.5382338,28.1450681 15.4724713,27.961225 C15.3730584,27.776668 15.308642,27.623168 15.308642,27.4384324 C15.3076806,27.4082679 15.2409566,27.3457969 15.2409566,27.3147399 C15.308642,27.1930108 15.308642,27.0387968 15.3749813,26.9463398 C15.4747788,26.8535258 15.6066883,26.7317967 15.6397618,26.6088182 C15.8066677,26.240775 16.1058677,25.9632255 16.1737453,25.5646608 C15.3782502,25.4398974 14.550643,25.499334 13.789952,25.222677 C13.6228538,25.160206 13.4251818,25.0982705 13.2605833,25.0061705 C13.1938594,24.9440565 13.2277021,24.852135 13.1284815,24.8223274" id="Fill-14" fill="#003C68"></path>
                        <path d="M13.9795516,12.7856691 C14.2191992,12.213372 14.6239676,11.8397786 14.6878479,11.193563 C13.3693986,10.4976239 11.7636818,10.9036042 10.8010261,9.2585359 C10.5720251,8.91485283 10.8126407,7.24330337 10.9425305,7.05412527 C11.2400575,6.44791711 11.8145924,6.45210837 12.3651239,6.8752348 C12.4200996,6.837704 12.8308689,6.95544022 12.9204948,6.99392358 C13.4609602,6.92267221 14.050207,7.11775617 14.6057714,7.23606392 C15.3595582,7.31836497 15.9846166,7.58946309 16.6689094,7.51859274 C16.7229172,7.48144297 16.7972506,7.32941465 16.781958,7.13909348 C16.6170309,6.14957582 16.3791254,5.31018137 16.1249595,4.28122779 C16.0208154,4.05185173 16.0262355,3.74760458 15.9760992,3.48088823 C15.9311895,2.9093532 15.5138386,1.99356356 15.8949907,1.73027642 C15.9491921,1.69255511 16.0200411,1.84534547 16.0736618,1.80857672 C16.183226,1.73294358 16.2565915,1.58110577 16.3467981,1.61977964 C17.6453091,2.42926377 18.7219813,3.69311824 19.8534358,4.92039447 C20.2252961,5.26617317 20.2938222,4.31456734 20.5857355,4.01298735 C20.6608432,3.86229261 20.5758631,3.51841903 20.6500029,3.36734327 C20.9277851,2.87468007 20.9922461,2.22827395 21.2140847,1.77390359 C21.6544712,1.1688385 21.9028298,0.295342456 22.5716364,0.0343414566 C23.0218953,-0.0763458285 23.5228712,0.0808263062 23.9297689,0.501666604 C24.0186205,0.540721498 24.2180043,0.504905302 24.341506,0.619974356 C24.8020244,1.00423641 25.1893709,1.54033627 25.6862817,2.000803 C25.8440465,2.19188621 25.9272844,2.53518826 25.8543061,2.68664504 C25.7356437,3.37077248 25.1074881,3.40354049 24.7402736,3.85638675 C24.0217177,4.95449606 23.3052912,6.05222435 22.5859611,7.14900009 C22.5125956,7.30102841 22.3097275,7.64128226 22.4676859,7.83255599 C23.4605396,8.75406098 24.3428611,9.75081808 25.4638624,10.4821924 C26.1576404,10.9068429 26.9321398,10.8746465 27.5519717,11.4513253 C27.9917774,11.9495134 28.3249225,12.5229535 28.5494712,13.1718363 C26.0263956,14.7107896 23.1548823,12.1748887 20.4581686,12.2301371 C20.2611078,12.2667153 20.3104698,12.5326696 20.2895635,12.6462146 C20.4343587,13.7519443 20.6347104,14.8191908 20.7440811,15.8464297 C20.8042833,16.6080954 21.2063417,17.3335639 21.319971,18.0580798 C21.3699138,18.3247962 21.6281448,19.0496931 21.2520257,19.0083521 C20.8205438,19.0047323 20.26556,18.8864246 19.9864228,18.2748821 C19.6052707,17.4343446 19.2229572,16.5955217 18.9492401,15.679732 C18.8996845,15.4132062 18.7959275,15.1844017 18.8901993,14.9176853 C18.913622,14.4998932 18.6499709,14.0784814 18.510983,13.7740437 C18.4420698,13.6208723 18.25914,13.8477717 18.1501565,13.9224523 C17.7831355,14.3764416 17.4176631,14.8298594 17.0854859,15.3600534 C16.4621697,16.1922084 15.7525184,16.6810614 14.9205268,17.0544643 C14.3059215,17.277744 13.3693986,17.4225329 12.9530156,16.5052191 C13.1504636,16.4684504 13.3188751,16.0514203 13.1940183,15.9353987 C12.2280718,14.5966731 13.5697502,13.7713765 13.9795516,12.7856691" id="Fill-15" fill="#5797C2"></path>
                        <path d="M117.573035,19.4013944 C117.636265,19.2571067 117.722389,19.1320695 117.830861,19.0260996 C117.939515,18.9199463 118.066157,18.8367104 118.210605,18.7765753 C118.355053,18.7158901 118.508404,18.6856391 118.67084,18.6856391 C118.833094,18.6856391 118.986264,18.7158901 119.129622,18.7765753 C119.273161,18.8367104 119.398531,18.9199463 119.506095,19.0260996 C119.613659,19.1320695 119.699238,19.2571067 119.762286,19.4013944 C119.825516,19.5456822 119.857313,19.7015203 119.857313,19.8690921 C119.857313,20.0406974 119.825516,20.1992856 119.762286,20.3446734 C119.699238,20.4896945 119.613659,20.616015 119.506095,20.723085 C119.398531,20.8301549 119.273161,20.9135742 119.129622,20.972976 C118.986264,21.0321945 118.833094,21.0618954 118.67084,21.0618954 C118.508404,21.0618954 118.355053,21.0321945 118.210605,20.972976 C118.066157,20.9135742 117.939515,20.8301549 117.830861,20.723085 C117.722389,20.616015 117.636265,20.4896945 117.573035,20.3446734 C117.509805,20.1992856 117.47819,20.0406974 117.47819,19.8690921 C117.47819,19.7015203 117.509805,19.5456822 117.573035,19.4013944 Z M117.76963,20.2759213 C117.819051,20.3996751 117.887369,20.5074784 117.974764,20.5985978 C118.06216,20.690084 118.165363,20.7614028 118.284192,20.8132877 C118.403203,20.8651727 118.531843,20.8913901 118.670659,20.8913901 C118.807657,20.8913901 118.934844,20.8651727 119.052583,20.8132877 C119.170503,20.7614028 119.273161,20.690084 119.360557,20.5985978 C119.447771,20.5074784 119.51627,20.3996751 119.565691,20.2759213 C119.615294,20.1519841 119.639823,20.01668 119.639823,19.8705588 C119.639823,19.7282878 119.615294,19.5959171 119.565691,19.47308 C119.51627,19.3498762 119.447771,19.2433563 119.360557,19.1535202 C119.273161,19.0631341 119.170503,18.9925486 119.052583,18.9401136 C118.934844,18.8882287 118.807657,18.8623779 118.670659,18.8623779 C118.531843,18.8623779 118.403203,18.8882287 118.284192,18.9401136 C118.165363,18.9925486 118.06216,19.0631341 117.974764,19.1535202 C117.887369,19.2433563 117.819051,19.3498762 117.76963,19.47308 C117.720209,19.5959171 117.695498,19.7282878 117.695498,19.8705588 C117.695498,20.01668 117.720209,20.1519841 117.76963,20.2759213 Z M118.744427,19.1790043 C118.909225,19.1790043 119.031143,19.2120053 119.110362,19.2774573 C119.189581,19.3430926 119.229373,19.4426457 119.229373,19.5753831 C119.229373,19.7004203 119.194124,19.7917231 119.124171,19.8498415 C119.054581,19.9081433 118.967731,19.9424277 118.863983,19.952878 L119.259352,20.5701803 L119.028781,20.5701803 L118.653397,19.9710286 L118.426278,19.9710286 L118.426278,20.5701803 L118.208788,20.5701803 L118.208788,19.1790043 L118.744427,19.1790043 Z M118.649764,19.7946565 C118.697913,19.7946565 118.743519,19.7930064 118.78658,19.7897063 C118.829461,19.7867729 118.86798,19.7777893 118.901775,19.7631222 C118.935207,19.7484551 118.962098,19.7255377 118.982085,19.6951034 C119.00189,19.6646692 119.011883,19.6219512 119.011883,19.5673162 C119.011883,19.5209314 119.00298,19.484447 118.985174,19.4569461 C118.967368,19.4294453 118.94411,19.4085447 118.915766,19.3936942 C118.887421,19.3790271 118.854898,19.3689434 118.818195,19.3636266 C118.781311,19.3584931 118.745335,19.3559264 118.709541,19.3559264 L118.426278,19.3559264 L118.426278,19.7946565 L118.649764,19.7946565 L118.649764,19.7946565 Z" id="Fill-16" fill="#1A1919"></path>
                        <path d="M117.573035,19.4013944 C117.636265,19.2571067 117.722389,19.1320695 117.830861,19.0260996 C117.939515,18.9199463 118.066157,18.8367104 118.210605,18.7765753 C118.355053,18.7158901 118.508404,18.6856391 118.67084,18.6856391 C118.833094,18.6856391 118.986264,18.7158901 119.129622,18.7765753 C119.273161,18.8367104 119.398531,18.9199463 119.506095,19.0260996 C119.613659,19.1320695 119.699238,19.2571067 119.762286,19.4013944 C119.825516,19.5456822 119.857313,19.7015203 119.857313,19.8690921 C119.857313,20.0406974 119.825516,20.1992856 119.762286,20.3446734 C119.699238,20.4896945 119.613659,20.616015 119.506095,20.723085 C119.398531,20.8301549 119.273161,20.9135742 119.129622,20.972976 C118.986264,21.0321945 118.833094,21.0618954 118.67084,21.0618954 C118.508404,21.0618954 118.355053,21.0321945 118.210605,20.972976 C118.066157,20.9135742 117.939515,20.8301549 117.830861,20.723085 C117.722389,20.616015 117.636265,20.4896945 117.573035,20.3446734 C117.509805,20.1992856 117.47819,20.0406974 117.47819,19.8690921 C117.47819,19.7015203 117.509805,19.5456822 117.573035,19.4013944 Z M117.76963,20.2759213 C117.819051,20.3996751 117.887369,20.5074784 117.974764,20.5985978 C118.06216,20.690084 118.165363,20.7614028 118.284192,20.8132877 C118.403203,20.8651727 118.531843,20.8913901 118.670659,20.8913901 C118.807657,20.8913901 118.934844,20.8651727 119.052583,20.8132877 C119.170503,20.7614028 119.273161,20.690084 119.360557,20.5985978 C119.447771,20.5074784 119.51627,20.3996751 119.565691,20.2759213 C119.615294,20.1519841 119.639823,20.01668 119.639823,19.8705588 C119.639823,19.7282878 119.615294,19.5959171 119.565691,19.47308 C119.51627,19.3498762 119.447771,19.2433563 119.360557,19.1535202 C119.273161,19.0631341 119.170503,18.9925486 119.052583,18.9401136 C118.934844,18.8882287 118.807657,18.8623779 118.670659,18.8623779 C118.531843,18.8623779 118.403203,18.8882287 118.284192,18.9401136 C118.165363,18.9925486 118.06216,19.0631341 117.974764,19.1535202 C117.887369,19.2433563 117.819051,19.3498762 117.76963,19.47308 C117.720209,19.5959171 117.695498,19.7282878 117.695498,19.8705588 C117.695498,20.01668 117.720209,20.1519841 117.76963,20.2759213 Z M118.744427,19.1790043 C118.909225,19.1790043 119.031143,19.2120053 119.110362,19.2774573 C119.189581,19.3430926 119.229373,19.4426457 119.229373,19.5753831 C119.229373,19.7004203 119.194124,19.7917231 119.124171,19.8498415 C119.054581,19.9081433 118.967731,19.9424277 118.863983,19.952878 L119.259352,20.5701803 L119.028781,20.5701803 L118.653397,19.9710286 L118.426278,19.9710286 L118.426278,20.5701803 L118.208788,20.5701803 L118.208788,19.1790043 L118.744427,19.1790043 Z M118.649764,19.7946565 C118.697913,19.7946565 118.743519,19.7930064 118.78658,19.7897063 C118.829461,19.7867729 118.86798,19.7777893 118.901775,19.7631222 C118.935207,19.7484551 118.962098,19.7255377 118.982085,19.6951034 C119.00189,19.6646692 119.011883,19.6219512 119.011883,19.5673162 C119.011883,19.5209314 119.00298,19.484447 118.985174,19.4569461 C118.967368,19.4294453 118.94411,19.4085447 118.915766,19.3936942 C118.887421,19.3790271 118.854898,19.3689434 118.818195,19.3636266 C118.781311,19.3584931 118.745335,19.3559264 118.709541,19.3559264 L118.426278,19.3559264 L118.426278,19.7946565 L118.649764,19.7946565 L118.649764,19.7946565 Z" id="Fill-17" fill="#003C68"></path>
                    </g>
                </g>
            </g>
        </g>
    </g>
</svg>